<?xml version="1.0" encoding="UTF-8" standalone="no"?><svg xmlns="http://www.w3.org/2000/svg" xmlns:xlink="http://www.w3.org/1999/xlink" contentScriptType="application/ecmascript" contentStyleType="text/css" height="860px" preserveAspectRatio="none" style="width:1113px;height:860px;background:#FFFFFF;" version="1.1" viewBox="0 0 1113 860" width="1113px" zoomAndPan="magnify"><defs><filter height="300%" id="f1esvf5yzxssic" width="300%" x="-1" y="-1"><feGaussianBlur result="blurOut" stdDeviation="2.0"/><feColorMatrix in="blurOut" result="blurOut2" type="matrix" values="0 0 0 0 0 0 0 0 0 0 0 0 0 0 0 0 0 0 .4 0"/><feOffset dx="4.0" dy="4.0" in="blurOut2" result="blurOut3"/><feBlend in="SourceGraphic" in2="blurOut3" mode="normal"/></filter></defs><g><rect fill="#FFFFFF" filter="url(#f1esvf5yzxssic)" height="29.1328" style="stroke:#A80036;stroke-width:1.0;" width="10" x="71.5" y="148.5625"/><rect fill="#FFFFFF" filter="url(#f1esvf5yzxssic)" height="29.1328" style="stroke:#A80036;stroke-width:1.0;" width="10" x="71.5" y="265.0938"/><rect fill="#FFFFFF" filter="url(#f1esvf5yzxssic)" height="29.1328" style="stroke:#A80036;stroke-width:1.0;" width="10" x="71.5" y="323.3594"/><rect fill="#FFFFFF" filter="url(#f1esvf5yzxssic)" height="29.1328" style="stroke:#A80036;stroke-width:1.0;" width="10" x="71.5" y="550.0938"/><rect fill="#FFFFFF" filter="url(#f1esvf5yzxssic)" height="9" style="stroke:#A80036;stroke-width:1.0;" width="10" x="71.5" y="757.8906"/><rect fill="#FFFFFF" filter="url(#f1esvf5yzxssic)" height="29.1328" style="stroke:#A80036;stroke-width:1.0;" width="10" x="553.5" y="119.4297"/><rect fill="#FFFFFF" filter="url(#f1esvf5yzxssic)" height="29.1328" style="stroke:#A80036;stroke-width:1.0;" width="10" x="553.5" y="177.6953"/><rect fill="#FFFFFF" filter="url(#f1esvf5yzxssic)" height="29.1328" style="stroke:#A80036;stroke-width:1.0;" width="10" x="553.5" y="235.9609"/><rect fill="#FFFFFF" filter="url(#f1esvf5yzxssic)" height="29.1328" style="stroke:#A80036;stroke-width:1.0;" width="10" x="553.5" y="294.2266"/><rect fill="#FFFFFF" filter="url(#f1esvf5yzxssic)" height="71.2656" style="stroke:#A80036;stroke-width:1.0;" width="10" x="553.5" y="352.4922"/><rect fill="#FFFFFF" filter="url(#f1esvf5yzxssic)" height="29.1328" style="stroke:#A80036;stroke-width:1.0;" width="10" x="553.5" y="520.9609"/><rect fill="#FFFFFF" filter="url(#f1esvf5yzxssic)" height="71.2656" style="stroke:#A80036;stroke-width:1.0;" width="10" x="553.5" y="579.2266"/><rect fill="#FFFFFF" filter="url(#f1esvf5yzxssic)" height="78.2656" style="stroke:#A80036;stroke-width:1.0;" width="10" x="553.5" y="679.625"/><rect fill="#FFFFFF" filter="url(#f1esvf5yzxssic)" height="29.1328" style="stroke:#A80036;stroke-width:1.0;" width="10" x="1018.5" y="206.8281"/><rect fill="#FFFFFF" filter="url(#f1esvf5yzxssic)" height="97.2031" style="stroke:#A80036;stroke-width:1.0;" width="10" x="1018.5" y="423.7578"/><rect fill="#FFFFFF" filter="url(#f1esvf5yzxssic)" height="29.1328" style="stroke:#A80036;stroke-width:1.0;" width="10" x="1018.5" y="650.4922"/><rect fill="#FFFFFF" filter="url(#f1esvf5yzxssic)" height="248.8672" style="stroke:#000000;stroke-width:2.0;" width="1089.5" x="10" y="438.7578"/><rect fill="#FFFFFF" height="202.6016" style="stroke:none;stroke-width:1.0;" width="1089.5" x="10" y="485.0234"/><line style="stroke:#A80036;stroke-width:1.0;stroke-dasharray:5.0,5.0;" x1="76" x2="76" y1="88.2969" y2="775.8906"/><line style="stroke:#A80036;stroke-width:1.0;stroke-dasharray:5.0,5.0;" x1="558" x2="558" y1="88.2969" y2="775.8906"/><line style="stroke:#A80036;stroke-width:1.0;stroke-dasharray:5.0,5.0;" x1="1023.5" x2="1023.5" y1="88.2969" y2="775.8906"/><text fill="#000000" font-family="sans-serif" font-size="14" lengthAdjust="spacing" textLength="107" x="20" y="84.9951">Пользователь</text><ellipse cx="76.5" cy="15" fill="#FEFECE" filter="url(#f1esvf5yzxssic)" rx="8" ry="8" style="stroke:#A80036;stroke-width:2.0;"/><path d="M76.5,23 L76.5,50 M63.5,31 L89.5,31 M76.5,50 L63.5,65 M76.5,50 L89.5,65 " fill="none" filter="url(#f1esvf5yzxssic)" style="stroke:#A80036;stroke-width:2.0;"/><text fill="#000000" font-family="sans-serif" font-size="14" lengthAdjust="spacing" textLength="107" x="20" y="787.8857">Пользователь</text><ellipse cx="76.5" cy="801.1875" fill="#FEFECE" filter="url(#f1esvf5yzxssic)" rx="8" ry="8" style="stroke:#A80036;stroke-width:2.0;"/><path d="M76.5,809.1875 L76.5,836.1875 M63.5,817.1875 L89.5,817.1875 M76.5,836.1875 L63.5,851.1875 M76.5,836.1875 L89.5,851.1875 " fill="none" filter="url(#f1esvf5yzxssic)" style="stroke:#A80036;stroke-width:2.0;"/><rect fill="#FEFECE" filter="url(#f1esvf5yzxssic)" height="30.2969" style="stroke:#A80036;stroke-width:1.5;" width="45" x="534" y="53"/><text fill="#000000" font-family="sans-serif" font-size="14" lengthAdjust="spacing" textLength="31" x="541" y="72.9951">ATM</text><rect fill="#FEFECE" filter="url(#f1esvf5yzxssic)" height="30.2969" style="stroke:#A80036;stroke-width:1.5;" width="45" x="534" y="774.8906"/><text fill="#000000" font-family="sans-serif" font-size="14" lengthAdjust="spacing" textLength="31" x="541" y="794.8857">ATM</text><rect fill="#FEFECE" filter="url(#f1esvf5yzxssic)" height="30.2969" style="stroke:#A80036;stroke-width:1.5;" width="128" x="957.5" y="53"/><text fill="#000000" font-family="sans-serif" font-size="14" lengthAdjust="spacing" textLength="114" x="964.5" y="72.9951">Банковское ПО</text><rect fill="#FEFECE" filter="url(#f1esvf5yzxssic)" height="30.2969" style="stroke:#A80036;stroke-width:1.5;" width="128" x="957.5" y="774.8906"/><text fill="#000000" font-family="sans-serif" font-size="14" lengthAdjust="spacing" textLength="114" x="964.5" y="794.8857">Банковское ПО</text><rect fill="#FFFFFF" filter="url(#f1esvf5yzxssic)" height="29.1328" style="stroke:#A80036;stroke-width:1.0;" width="10" x="71.5" y="148.5625"/><rect fill="#FFFFFF" filter="url(#f1esvf5yzxssic)" height="29.1328" style="stroke:#A80036;stroke-width:1.0;" width="10" x="71.5" y="265.0938"/><rect fill="#FFFFFF" filter="url(#f1esvf5yzxssic)" height="29.1328" style="stroke:#A80036;stroke-width:1.0;" width="10" x="71.5" y="323.3594"/><rect fill="#FFFFFF" filter="url(#f1esvf5yzxssic)" height="29.1328" style="stroke:#A80036;stroke-width:1.0;" width="10" x="71.5" y="550.0938"/><rect fill="#FFFFFF" filter="url(#f1esvf5yzxssic)" height="9" style="stroke:#A80036;stroke-width:1.0;" width="10" x="71.5" y="757.8906"/><rect fill="#FFFFFF" filter="url(#f1esvf5yzxssic)" height="29.1328" style="stroke:#A80036;stroke-width:1.0;" width="10" x="553.5" y="119.4297"/><rect fill="#FFFFFF" filter="url(#f1esvf5yzxssic)" height="29.1328" style="stroke:#A80036;stroke-width:1.0;" width="10" x="553.5" y="177.6953"/><rect fill="#FFFFFF" filter="url(#f1esvf5yzxssic)" height="29.1328" style="stroke:#A80036;stroke-width:1.0;" width="10" x="553.5" y="235.9609"/><rect fill="#FFFFFF" filter="url(#f1esvf5yzxssic)" height="29.1328" style="stroke:#A80036;stroke-width:1.0;" width="10" x="553.5" y="294.2266"/><rect fill="#FFFFFF" filter="url(#f1esvf5yzxssic)" height="71.2656" style="stroke:#A80036;stroke-width:1.0;" width="10" x="553.5" y="352.4922"/><rect fill="#FFFFFF" filter="url(#f1esvf5yzxssic)" height="29.1328" style="stroke:#A80036;stroke-width:1.0;" width="10" x="553.5" y="520.9609"/><rect fill="#FFFFFF" filter="url(#f1esvf5yzxssic)" height="71.2656" style="stroke:#A80036;stroke-width:1.0;" width="10" x="553.5" y="579.2266"/><rect fill="#FFFFFF" filter="url(#f1esvf5yzxssic)" height="78.2656" style="stroke:#A80036;stroke-width:1.0;" width="10" x="553.5" y="679.625"/><rect fill="#FFFFFF" filter="url(#f1esvf5yzxssic)" height="29.1328" style="stroke:#A80036;stroke-width:1.0;" width="10" x="1018.5" y="206.8281"/><rect fill="#FFFFFF" filter="url(#f1esvf5yzxssic)" height="97.2031" style="stroke:#A80036;stroke-width:1.0;" width="10" x="1018.5" y="423.7578"/><rect fill="#FFFFFF" filter="url(#f1esvf5yzxssic)" height="29.1328" style="stroke:#A80036;stroke-width:1.0;" width="10" x="1018.5" y="650.4922"/><polygon fill="#A80036" points="541.5,115.4297,551.5,119.4297,541.5,123.4297,545.5,119.4297" style="stroke:#A80036;stroke-width:1.0;"/><line style="stroke:#A80036;stroke-width:1.0;" x1="76.5" x2="547.5" y1="119.4297" y2="119.4297"/><text fill="#000000" font-family="sans-serif" font-size="13" lengthAdjust="spacing" textLength="233" x="83.5" y="114.3638">Нажать кнопку "Снятие наличных"</text><polygon fill="#A80036" points="92.5,144.5625,82.5,148.5625,92.5,152.5625,88.5,148.5625" style="stroke:#A80036;stroke-width:1.0;"/><line style="stroke:#A80036;stroke-width:1.0;" x1="86.5" x2="557.5" y1="148.5625" y2="148.5625"/><text fill="#000000" font-family="sans-serif" font-size="13" lengthAdjust="spacing" textLength="262" x="98.5" y="143.4966">отображает окно с просьбой ввода PIN</text><polygon fill="#A80036" points="541.5,173.6953,551.5,177.6953,541.5,181.6953,545.5,177.6953" style="stroke:#A80036;stroke-width:1.0;"/><line style="stroke:#A80036;stroke-width:1.0;" x1="76.5" x2="547.5" y1="177.6953" y2="177.6953"/><text fill="#000000" font-family="sans-serif" font-size="13" lengthAdjust="spacing" textLength="71" x="83.5" y="172.6294">вводит PIN</text><polygon fill="#A80036" points="1006.5,202.8281,1016.5,206.8281,1006.5,210.8281,1010.5,206.8281" style="stroke:#A80036;stroke-width:1.0;"/><line style="stroke:#A80036;stroke-width:1.0;" x1="558.5" x2="1012.5" y1="206.8281" y2="206.8281"/><text fill="#000000" font-family="sans-serif" font-size="13" lengthAdjust="spacing" textLength="351" x="565.5" y="201.7622">отправляет запрос на проверку данных карты и PIN</text><polygon fill="#A80036" points="574.5,231.9609,564.5,235.9609,574.5,239.9609,570.5,235.9609" style="stroke:#A80036;stroke-width:1.0;"/><line style="stroke:#A80036;stroke-width:1.0;stroke-dasharray:2.0,2.0;" x1="568.5" x2="1022.5" y1="235.9609" y2="235.9609"/><text fill="#000000" font-family="sans-serif" font-size="13" lengthAdjust="spacing" textLength="129" x="580.5" y="230.895">данные корректны</text><polygon fill="#A80036" points="92.5,261.0938,82.5,265.0938,92.5,269.0938,88.5,265.0938" style="stroke:#A80036;stroke-width:1.0;"/><line style="stroke:#A80036;stroke-width:1.0;" x1="86.5" x2="557.5" y1="265.0938" y2="265.0938"/><text fill="#000000" font-family="sans-serif" font-size="13" lengthAdjust="spacing" textLength="315" x="98.5" y="260.0278">отображает окно с выбором валюты операции</text><polygon fill="#A80036" points="541.5,290.2266,551.5,294.2266,541.5,298.2266,545.5,294.2266" style="stroke:#A80036;stroke-width:1.0;"/><line style="stroke:#A80036;stroke-width:1.0;" x1="76.5" x2="547.5" y1="294.2266" y2="294.2266"/><text fill="#000000" font-family="sans-serif" font-size="13" lengthAdjust="spacing" textLength="251" x="83.5" y="289.1606">нажать кнопку с выбранной валютой</text><polygon fill="#A80036" points="92.5,319.3594,82.5,323.3594,92.5,327.3594,88.5,323.3594" style="stroke:#A80036;stroke-width:1.0;"/><line style="stroke:#A80036;stroke-width:1.0;" x1="86.5" x2="557.5" y1="323.3594" y2="323.3594"/><text fill="#000000" font-family="sans-serif" font-size="13" lengthAdjust="spacing" textLength="297" x="98.5" y="318.2935">отображает окно с вводом суммы операции</text><polygon fill="#A80036" points="541.5,348.4922,551.5,352.4922,541.5,356.4922,545.5,352.4922" style="stroke:#A80036;stroke-width:1.0;"/><line style="stroke:#A80036;stroke-width:1.0;" x1="76.5" x2="547.5" y1="352.4922" y2="352.4922"/><text fill="#000000" font-family="sans-serif" font-size="13" lengthAdjust="spacing" textLength="158" x="83.5" y="347.4263">ввести сумму операции</text><line style="stroke:#A80036;stroke-width:1.0;" x1="563.5" x2="605.5" y1="381.625" y2="381.625"/><line style="stroke:#A80036;stroke-width:1.0;" x1="605.5" x2="605.5" y1="381.625" y2="394.625"/><line style="stroke:#A80036;stroke-width:1.0;" x1="564.5" x2="605.5" y1="394.625" y2="394.625"/><polygon fill="#A80036" points="574.5,390.625,564.5,394.625,574.5,398.625,570.5,394.625" style="stroke:#A80036;stroke-width:1.0;"/><text fill="#000000" font-family="sans-serif" font-size="13" lengthAdjust="spacing" textLength="441" x="570.5" y="376.5591">проверка наличия денежных средств в АТМ, средств достаточно</text><polygon fill="#A80036" points="1006.5,419.7578,1016.5,423.7578,1006.5,427.7578,1010.5,423.7578" style="stroke:#A80036;stroke-width:1.0;"/><line style="stroke:#A80036;stroke-width:1.0;" x1="558.5" x2="1012.5" y1="423.7578" y2="423.7578"/><text fill="#000000" font-family="sans-serif" font-size="13" lengthAdjust="spacing" textLength="271" x="565.5" y="418.6919">запрос достаточности средств на карте</text><path d="M10,438.7578 L76,438.7578 L76,445.7578 L66,455.7578 L10,455.7578 L10,438.7578 " fill="#EEEEEE" style="stroke:#000000;stroke-width:1.0;"/><rect fill="none" height="248.8672" style="stroke:#000000;stroke-width:2.0;" width="1089.5" x="10" y="438.7578"/><text fill="#000000" font-family="sans-serif" font-size="13" font-weight="bold" lengthAdjust="spacing" textLength="21" x="25" y="451.8247">alt</text><text fill="#000000" font-family="sans-serif" font-size="11" font-weight="bold" lengthAdjust="spacing" textLength="114" x="91" y="450.9683">[successful case]</text><polygon fill="#A80036" points="569.5,473.0234,559.5,477.0234,569.5,481.0234,565.5,477.0234" style="stroke:#A80036;stroke-width:1.0;"/><line style="stroke:#A80036;stroke-width:1.0;stroke-dasharray:2.0,2.0;" x1="563.5" x2="1017.5" y1="477.0234" y2="477.0234"/><text fill="#000000" font-family="sans-serif" font-size="13" lengthAdjust="spacing" textLength="245" x="575.5" y="471.9575">ответ: средств на карте достаточно</text><line style="stroke:#000000;stroke-width:1.0;stroke-dasharray:2.0,2.0;" x1="10" x2="1099.5" y1="486.0234" y2="486.0234"/><text fill="#000000" font-family="sans-serif" font-size="11" font-weight="bold" lengthAdjust="spacing" textLength="146" x="15" y="496.2339">[some kind of failure]</text><polygon fill="#A80036" points="574.5,516.9609,564.5,520.9609,574.5,524.9609,570.5,520.9609" style="stroke:#A80036;stroke-width:1.0;"/><line style="stroke:#A80036;stroke-width:1.0;stroke-dasharray:2.0,2.0;" x1="568.5" x2="1022.5" y1="520.9609" y2="520.9609"/><text fill="#000000" font-family="sans-serif" font-size="13" lengthAdjust="spacing" textLength="261" x="580.5" y="515.895">ответ: средств на карте недостаточно</text><polygon fill="#A80036" points="92.5,546.0938,82.5,550.0938,92.5,554.0938,88.5,550.0938" style="stroke:#A80036;stroke-width:1.0;"/><line style="stroke:#A80036;stroke-width:1.0;" x1="86.5" x2="557.5" y1="550.0938" y2="550.0938"/><text fill="#000000" font-family="sans-serif" font-size="13" lengthAdjust="spacing" textLength="453" x="98.5" y="545.0278">ошибка "средств недостаточно", отображает окно с вводом суммы</text><polygon fill="#A80036" points="541.5,575.2266,551.5,579.2266,541.5,583.2266,545.5,579.2266" style="stroke:#A80036;stroke-width:1.0;"/><line style="stroke:#A80036;stroke-width:1.0;" x1="76.5" x2="547.5" y1="579.2266" y2="579.2266"/><text fill="#000000" font-family="sans-serif" font-size="13" lengthAdjust="spacing" textLength="158" x="83.5" y="574.1606">ввести сумму операции</text><line style="stroke:#A80036;stroke-width:1.0;" x1="563.5" x2="605.5" y1="608.3594" y2="608.3594"/><line style="stroke:#A80036;stroke-width:1.0;" x1="605.5" x2="605.5" y1="608.3594" y2="621.3594"/><line style="stroke:#A80036;stroke-width:1.0;" x1="564.5" x2="605.5" y1="621.3594" y2="621.3594"/><polygon fill="#A80036" points="574.5,617.3594,564.5,621.3594,574.5,625.3594,570.5,621.3594" style="stroke:#A80036;stroke-width:1.0;"/><text fill="#000000" font-family="sans-serif" font-size="13" lengthAdjust="spacing" textLength="441" x="570.5" y="603.2935">проверка наличия денежных средств в АТМ, средств достаточно</text><polygon fill="#A80036" points="1006.5,646.4922,1016.5,650.4922,1006.5,654.4922,1010.5,650.4922" style="stroke:#A80036;stroke-width:1.0;"/><line style="stroke:#A80036;stroke-width:1.0;" x1="558.5" x2="1012.5" y1="650.4922" y2="650.4922"/><text fill="#000000" font-family="sans-serif" font-size="13" lengthAdjust="spacing" textLength="271" x="565.5" y="645.4263">запрос достаточности средств на карте</text><polygon fill="#A80036" points="574.5,675.625,564.5,679.625,574.5,683.625,570.5,679.625" style="stroke:#A80036;stroke-width:1.0;"/><line style="stroke:#A80036;stroke-width:1.0;stroke-dasharray:2.0,2.0;" x1="568.5" x2="1022.5" y1="679.625" y2="679.625"/><text fill="#000000" font-family="sans-serif" font-size="13" lengthAdjust="spacing" textLength="245" x="580.5" y="674.5591">ответ: средств на карте достаточно</text><line style="stroke:#A80036;stroke-width:1.0;" x1="563.5" x2="605.5" y1="715.7578" y2="715.7578"/><line style="stroke:#A80036;stroke-width:1.0;" x1="605.5" x2="605.5" y1="715.7578" y2="728.7578"/><line style="stroke:#A80036;stroke-width:1.0;" x1="564.5" x2="605.5" y1="728.7578" y2="728.7578"/><polygon fill="#A80036" points="574.5,724.7578,564.5,728.7578,574.5,732.7578,570.5,728.7578" style="stroke:#A80036;stroke-width:1.0;"/><text fill="#000000" font-family="sans-serif" font-size="13" lengthAdjust="spacing" textLength="177" x="570.5" y="710.6919">отсчет денежных средств</text><polygon fill="#A80036" points="92.5,753.8906,82.5,757.8906,92.5,761.8906,88.5,757.8906" style="stroke:#A80036;stroke-width:1.0;"/><line style="stroke:#A80036;stroke-width:1.0;" x1="86.5" x2="557.5" y1="757.8906" y2="757.8906"/><text fill="#000000" font-family="sans-serif" font-size="13" lengthAdjust="spacing" textLength="183" x="98.5" y="752.8247">выдача денежных средств</text><!--MD5=[0a0b659f99e721058bfb2978ca400be0]
@startuml
Actor "Пользователь" as p1
Participant "ATM" as b1
Participant "Банковское ПО" as s1

p1->b1: Нажать кнопку "Снятие наличных"
activate b1
b1->p1: отображает окно с просьбой ввода PIN
deactivate b1
activate p1
p1->b1: вводит PIN
deactivate p1
activate b1

b1->s1: отправляет запрос на проверку данных карты и PIN
deactivate b1
activate s1
s1 - -> b1: данные корректны
deactivate s1
activate b1

b1->p1:  отображает окно с выбором валюты операции
deactivate b1
activate p1
p1->b1: нажать кнопку с выбранной валютой
deactivate p1
activate b1

b1->p1:  отображает окно с вводом суммы операции
deactivate b1
activate p1
p1->b1: ввести сумму операции
deactivate p1
activate b1

b1->b1:  проверка наличия денежных средств в АТМ, средств достаточно
b1->s1: запрос достаточности средств на карте
deactivate b1
activate s1
alt successful case
s1 - -> b1: ответ: средств на карте достаточно
else some kind of failure
s1 - -> b1: ответ: средств на карте недостаточно
deactivate s1
activate b1
b1->p1: ошибка "средств недостаточно", отображает окно с вводом суммы
deactivate b1
activate p1
p1->b1: ввести сумму операции
deactivate p1
activate b1
b1->b1:  проверка наличия денежных средств в АТМ, средств достаточно
b1->s1: запрос достаточности средств на карте
deactivate b1
activate s1
s1 - -> b1: ответ: средств на карте достаточно
deactivate s1
activate b1
end


b1->b1:  отсчет денежных средств
b1->p1:  выдача денежных средств
deactivate b1
activate p1
deactivate p1
@enduml

PlantUML version 1.2021.17beta4(Unknown compile time)
(GPL source distribution)
Java Runtime: Java(TM) SE Runtime Environment
JVM: Java HotSpot(TM) 64-Bit Server VM
Default Encoding: UTF-8
Language: en
Country: US
--></g></svg>