<?xml version="1.0" encoding="UTF-8" standalone="no"?><svg xmlns="http://www.w3.org/2000/svg" xmlns:xlink="http://www.w3.org/1999/xlink" contentScriptType="application/ecmascript" contentStyleType="text/css" height="1277px" preserveAspectRatio="none" style="width:1201px;height:1277px;background:#FFFFFF;" version="1.1" viewBox="0 0 1201 1277" width="1201px" zoomAndPan="magnify"><defs><filter height="300%" id="f1ivqlltbl8h4y" width="300%" x="-1" y="-1"><feGaussianBlur result="blurOut" stdDeviation="2.0"/><feColorMatrix in="blurOut" result="blurOut2" type="matrix" values="0 0 0 0 0 0 0 0 0 0 0 0 0 0 0 0 0 0 .4 0"/><feOffset dx="4.0" dy="4.0" in="blurOut2" result="blurOut3"/><feBlend in="SourceGraphic" in2="blurOut3" mode="normal"/></filter></defs><g><ellipse cx="91.5" cy="48.6982" fill="#000000" filter="url(#f1ivqlltbl8h4y)" rx="10" ry="10" style="stroke:none;stroke-width:1.0;"/><rect fill="#FEFECE" filter="url(#f1ivqlltbl8h4y)" height="47.9375" rx="12.5" ry="12.5" style="stroke:#A80036;stroke-width:1.5;" width="141" x="21" y="78.6982"/><text fill="#000000" font-family="sans-serif" font-size="12" lengthAdjust="spacing" textLength="48" x="31" y="99.8369">Нажать</text><text fill="#000000" font-family="sans-serif" font-size="12" lengthAdjust="spacing" textLength="121" x="31" y="113.8057">"Снятие наличных"</text><rect fill="#FEFECE" filter="url(#f1ivqlltbl8h4y)" height="33.9688" rx="12.5" ry="12.5" style="stroke:#A80036;stroke-width:1.5;" width="73" x="55" y="200.6045"/><text fill="#000000" font-family="sans-serif" font-size="12" lengthAdjust="spacing" textLength="53" x="65" y="221.7432">Ввод PIN</text><rect fill="#FEFECE" filter="url(#f1ivqlltbl8h4y)" height="47.9375" rx="12.5" ry="12.5" style="stroke:#A80036;stroke-width:1.5;" width="115" x="34" y="676.292"/><text fill="#000000" font-family="sans-serif" font-size="12" lengthAdjust="spacing" textLength="91" x="48" y="697.4307">выбор валюты</text><text fill="#000000" font-family="sans-serif" font-size="12" lengthAdjust="spacing" textLength="64" x="48" y="711.3994">операции</text><rect fill="#FEFECE" filter="url(#f1ivqlltbl8h4y)" height="47.9375" rx="12.5" ry="12.5" style="stroke:#A80036;stroke-width:1.5;" width="108" x="37.5" y="842.1982"/><text fill="#000000" font-family="sans-serif" font-size="12" lengthAdjust="spacing" textLength="84" x="51.5" y="863.3369">набор суммы</text><text fill="#000000" font-family="sans-serif" font-size="12" lengthAdjust="spacing" textLength="64" x="47.5" y="877.3057">операции</text><line style="stroke:#000000;stroke-width:2.0;" x1="15" x2="15" y1="12.7451" y2="1260.2998"/><rect fill="#FEFECE" filter="url(#f1ivqlltbl8h4y)" height="33.9688" rx="12.5" ry="12.5" style="stroke:#A80036;stroke-width:1.5;" width="128" x="385.25" y="146.6357"/><text fill="#000000" font-family="sans-serif" font-size="12" lengthAdjust="spacing" textLength="108" x="395.25" y="167.7744">запрос ввода PIN</text><rect fill="#FEFECE" filter="url(#f1ivqlltbl8h4y)" height="47.9375" rx="12.5" ry="12.5" style="stroke:#A80036;stroke-width:1.5;" width="131" x="383.75" y="254.5732"/><text fill="#000000" font-family="sans-serif" font-size="12" lengthAdjust="spacing" textLength="111" x="393.75" y="275.7119">запрос проверки</text><text fill="#000000" font-family="sans-serif" font-size="12" lengthAdjust="spacing" textLength="81" x="393.75" y="289.6807">данных и PIN</text><rect fill="#000000" filter="url(#f1ivqlltbl8h4y)" height="6" rx="2.5" ry="2.5" style="stroke:#000000;stroke-width:1.0;" width="515.25" x="178" y="322.5107"/><rect fill="#FEFECE" filter="url(#f1ivqlltbl8h4y)" height="47.9375" rx="12.5" ry="12.5" style="stroke:#A80036;stroke-width:1.5;" width="153" x="190" y="439.4639"/><text fill="#000000" font-family="sans-serif" font-size="12" lengthAdjust="spacing" textLength="133" x="200" y="460.6025">ожидание проверки</text><text fill="#000000" font-family="sans-serif" font-size="12" lengthAdjust="spacing" textLength="81" x="200" y="474.5713">данных и PIN</text><rect fill="#FFC0CB" filter="url(#f1ivqlltbl8h4y)" height="47.9375" rx="12.5" ry="12.5" style="stroke:#A80036;stroke-width:1.5;" width="112" x="569.25" y="514.417"/><text fill="#000000" font-family="sans-serif" font-size="12" lengthAdjust="spacing" textLength="91" x="579.25" y="535.5557">предложение</text><text fill="#000000" font-family="sans-serif" font-size="12" lengthAdjust="spacing" textLength="92" x="579.25" y="549.5244">вернуть карту</text><rect fill="#000000" filter="url(#f1ivqlltbl8h4y)" height="6" rx="2.5" ry="2.5" style="stroke:#000000;stroke-width:1.0;" width="515.25" x="178" y="582.3545"/><rect fill="#FEFECE" filter="url(#f1ivqlltbl8h4y)" height="47.9375" rx="12.5" ry="12.5" style="stroke:#A80036;stroke-width:1.5;" width="135" x="381.75" y="608.3545"/><text fill="#000000" font-family="sans-serif" font-size="12" lengthAdjust="spacing" textLength="96" x="391.75" y="629.4932">запрос выбора</text><text fill="#000000" font-family="sans-serif" font-size="12" lengthAdjust="spacing" textLength="115" x="391.75" y="643.4619">валюты операции</text><rect fill="#FEFECE" filter="url(#f1ivqlltbl8h4y)" height="33.9688" rx="12.5" ry="12.5" style="stroke:#A80036;stroke-width:1.5;" width="220" x="339.25" y="788.2295"/><text fill="#000000" font-family="sans-serif" font-size="12" lengthAdjust="spacing" textLength="200" x="349.25" y="809.3682">запрос ввода суммы операции</text><rect fill="#FEFECE" filter="url(#f1ivqlltbl8h4y)" height="47.9375" rx="12.5" ry="12.5" style="stroke:#A80036;stroke-width:1.5;" width="137" x="380.75" y="910.1357"/><text fill="#000000" font-family="sans-serif" font-size="12" lengthAdjust="spacing" textLength="117" x="390.75" y="931.2744">проверка наличия</text><text fill="#000000" font-family="sans-serif" font-size="12" lengthAdjust="spacing" textLength="93" x="390.75" y="945.2432">средств в АТМ</text><rect fill="#FEFECE" filter="url(#f1ivqlltbl8h4y)" height="47.9375" rx="12.5" ry="12.5" style="stroke:#A80036;stroke-width:1.5;" width="136" x="381.25" y="988.8779"/><text fill="#000000" font-family="sans-serif" font-size="12" lengthAdjust="spacing" textLength="112" x="395.25" y="1010.0166">Запрос проверки</text><text fill="#000000" font-family="sans-serif" font-size="12" lengthAdjust="spacing" textLength="113" x="391.25" y="1023.9854">средств на карте</text><polygon fill="#FEFECE" filter="url(#f1ivqlltbl8h4y)" points="449.25,744.2295,461.25,756.2295,449.25,768.2295,437.25,756.2295,449.25,744.2295" style="stroke:#A80036;stroke-width:1.5;"/><rect fill="#FEFECE" filter="url(#f1ivqlltbl8h4y)" height="47.9375" rx="12.5" ry="12.5" style="stroke:#A80036;stroke-width:1.5;" width="126" x="386.25" y="1170.3623"/><text fill="#000000" font-family="sans-serif" font-size="12" lengthAdjust="spacing" textLength="106" x="396.25" y="1191.501">расчет и выдача</text><text fill="#000000" font-family="sans-serif" font-size="12" lengthAdjust="spacing" textLength="53" x="396.25" y="1205.4697">средств</text><ellipse cx="449.25" cy="1249.2998" fill="#FFFFFF" filter="url(#f1ivqlltbl8h4y)" rx="11" ry="11" style="stroke:#000000;stroke-width:1.0;"/><ellipse cx="449.25" cy="1249.2998" fill="#000000" rx="6" ry="6" style="stroke:#7F7F7F;stroke-width:1.0;"/><line style="stroke:#000000;stroke-width:2.0;" x1="172" x2="172" y1="12.7451" y2="1260.2998"/><rect fill="#FEFECE" filter="url(#f1ivqlltbl8h4y)" height="33.9688" rx="12.5" ry="12.5" style="stroke:#A80036;stroke-width:1.5;" width="167" x="809.5" y="348.5107"/><text fill="#000000" font-family="sans-serif" font-size="12" lengthAdjust="spacing" textLength="147" x="819.5" y="369.6494">Проверка данных и PIN</text><polygon fill="#FEFECE" filter="url(#f1ivqlltbl8h4y)" points="828.5,402.4795,957.5,402.4795,969.5,414.4795,957.5,426.4795,828.5,426.4795,816.5,414.4795,828.5,402.4795" style="stroke:#A80036;stroke-width:1.5;"/><text fill="#000000" font-family="sans-serif" font-size="11" lengthAdjust="spacing" textLength="129" x="828.5" y="418.2876">есть ответ системы?</text><text fill="#000000" font-family="sans-serif" font-size="11" lengthAdjust="spacing" textLength="16" x="800.5" y="411.8853">Да</text><text fill="#000000" font-family="sans-serif" font-size="11" lengthAdjust="spacing" textLength="23" x="969.5" y="411.8853">Нет</text><rect fill="#98FB98" filter="url(#f1ivqlltbl8h4y)" height="33.9688" rx="12.5" ry="12.5" style="stroke:#A80036;stroke-width:1.5;" width="147" x="733" y="446.4795"/><text fill="#000000" font-family="sans-serif" font-size="12" lengthAdjust="spacing" textLength="123" x="747" y="467.6182">данные корректны</text><rect fill="#FFC0CB" filter="url(#f1ivqlltbl8h4y)" height="47.9375" rx="12.5" ry="12.5" style="stroke:#A80036;stroke-width:1.5;" width="142" x="908.5" y="446.4795"/><text fill="#000000" font-family="sans-serif" font-size="12" lengthAdjust="spacing" textLength="82" x="922.5" y="467.6182">Ошибка: нет</text><text fill="#000000" font-family="sans-serif" font-size="12" lengthAdjust="spacing" textLength="122" x="918.5" y="481.5869">ответа от системы</text><rect fill="#FEFECE" filter="url(#f1ivqlltbl8h4y)" height="47.9375" rx="12.5" ry="12.5" style="stroke:#A80036;stroke-width:1.5;" width="184" x="709.25" y="1056.8154"/><text fill="#000000" font-family="sans-serif" font-size="12" lengthAdjust="spacing" textLength="164" x="719.25" y="1077.9541">Проверка достаточности</text><text fill="#000000" font-family="sans-serif" font-size="12" lengthAdjust="spacing" textLength="113" x="719.25" y="1091.9229">средств на карте</text><polygon fill="#FEFECE" filter="url(#f1ivqlltbl8h4y)" points="744.25,1124.7529,858.25,1124.7529,870.25,1137.5576,858.25,1150.3623,744.25,1150.3623,732.25,1137.5576,744.25,1124.7529" style="stroke:#A80036;stroke-width:1.5;"/><text fill="#000000" font-family="sans-serif" font-size="11" lengthAdjust="spacing" textLength="71" x="744.25" y="1134.9634">достаточно</text><text fill="#000000" font-family="sans-serif" font-size="11" lengthAdjust="spacing" textLength="114" x="744.25" y="1147.7681">средств на карте?</text><text fill="#000000" font-family="sans-serif" font-size="11" lengthAdjust="spacing" textLength="23" x="870.25" y="1134.9634">Нет</text><rect fill="#FEFECE" filter="url(#f1ivqlltbl8h4y)" height="33.9688" rx="12.5" ry="12.5" style="stroke:#A80036;stroke-width:1.5;" width="236" x="935.25" y="924.9092"/><text fill="#000000" font-family="sans-serif" font-size="12" lengthAdjust="spacing" textLength="212" x="949.25" y="946.0479">Ошибка: средств не достаточно</text><line style="stroke:#000000;stroke-width:2.0;" x1="703.25" x2="703.25" y1="12.7451" y2="1260.2998"/><line style="stroke:#000000;stroke-width:2.0;" x1="1181.25" x2="1181.25" y1="12.7451" y2="1260.2998"/><line style="stroke:#A80036;stroke-width:1.5;" x1="91.5" x2="91.5" y1="58.6982" y2="78.6982"/><polygon fill="#A80036" points="87.5,68.6982,91.5,78.6982,95.5,68.6982,91.5,72.6982" style="stroke:#A80036;stroke-width:1.0;"/><line style="stroke:#A80036;stroke-width:1.5;" x1="266.5" x2="266.5" y1="328.5107" y2="439.4639"/><polygon fill="#A80036" points="262.5,429.4639,266.5,439.4639,270.5,429.4639,266.5,433.4639" style="stroke:#A80036;stroke-width:1.0;"/><line style="stroke:#A80036;stroke-width:1.5;" x1="266.5" x2="266.5" y1="487.4014" y2="582.3545"/><polygon fill="#A80036" points="262.5,572.3545,266.5,582.3545,270.5,572.3545,266.5,576.3545" style="stroke:#A80036;stroke-width:1.0;"/><line style="stroke:#A80036;stroke-width:1.5;" x1="449.25" x2="449.25" y1="302.5107" y2="322.5107"/><polygon fill="#A80036" points="445.25,312.5107,449.25,322.5107,453.25,312.5107,449.25,316.5107" style="stroke:#A80036;stroke-width:1.0;"/><line style="stroke:#A80036;stroke-width:1.5;" x1="449.25" x2="449.25" y1="588.3545" y2="608.3545"/><polygon fill="#A80036" points="445.25,598.3545,449.25,608.3545,453.25,598.3545,449.25,602.3545" style="stroke:#A80036;stroke-width:1.0;"/><line style="stroke:#A80036;stroke-width:1.5;" x1="449.25" x2="449.25" y1="958.0732" y2="988.8779"/><polygon fill="#A80036" points="445.25,978.8779,449.25,988.8779,453.25,978.8779,449.25,982.8779" style="stroke:#A80036;stroke-width:1.0;"/><line style="stroke:#A80036;stroke-width:1.5;" x1="449.25" x2="449.25" y1="768.2295" y2="788.2295"/><polygon fill="#A80036" points="445.25,778.2295,449.25,788.2295,453.25,778.2295,449.25,782.2295" style="stroke:#A80036;stroke-width:1.0;"/><line style="stroke:#A80036;stroke-width:1.5;" x1="449.25" x2="449.25" y1="1218.2998" y2="1238.2998"/><polygon fill="#A80036" points="445.25,1228.2998,449.25,1238.2998,453.25,1228.2998,449.25,1232.2998" style="stroke:#A80036;stroke-width:1.0;"/><line style="stroke:#A80036;stroke-width:1.5;" x1="816.5" x2="806.5" y1="414.4795" y2="414.4795"/><line style="stroke:#A80036;stroke-width:1.5;" x1="806.5" x2="806.5" y1="414.4795" y2="446.4795"/><polygon fill="#A80036" points="802.5,436.4795,806.5,446.4795,810.5,436.4795,806.5,440.4795" style="stroke:#A80036;stroke-width:1.0;"/><line style="stroke:#A80036;stroke-width:1.5;" x1="969.5" x2="979.5" y1="414.4795" y2="414.4795"/><line style="stroke:#A80036;stroke-width:1.5;" x1="979.5" x2="979.5" y1="414.4795" y2="446.4795"/><polygon fill="#A80036" points="975.5,436.4795,979.5,446.4795,983.5,436.4795,979.5,440.4795" style="stroke:#A80036;stroke-width:1.0;"/><line style="stroke:#A80036;stroke-width:1.5;" x1="806.5" x2="806.5" y1="480.4482" y2="568.3545"/><line style="stroke:#A80036;stroke-width:1.5;" x1="806.5" x2="541" y1="568.3545" y2="568.3545"/><line style="stroke:#A80036;stroke-width:1.5;" x1="541" x2="541" y1="568.3545" y2="582.3545"/><polygon fill="#A80036" points="537,572.3545,541,582.3545,545,572.3545,541,576.3545" style="stroke:#A80036;stroke-width:1.0;"/><line style="stroke:#A80036;stroke-width:1.5;" x1="893" x2="893" y1="382.4795" y2="402.4795"/><polygon fill="#A80036" points="889,392.4795,893,402.4795,897,392.4795,893,396.4795" style="stroke:#A80036;stroke-width:1.0;"/><line style="stroke:#A80036;stroke-width:1.5;" x1="870.25" x2="1053.25" y1="1137.5576" y2="1137.5576"/><line style="stroke:#A80036;stroke-width:1.5;" x1="1053.25" x2="1053.25" y1="958.8779" y2="1137.5576"/><polygon fill="#A80036" points="1049.25,968.8779,1053.25,958.8779,1057.25,968.8779,1053.25,964.8779" style="stroke:#A80036;stroke-width:1.0;"/><line style="stroke:#A80036;stroke-width:1.5;" x1="801.25" x2="801.25" y1="1104.7529" y2="1124.7529"/><polygon fill="#A80036" points="797.25,1114.7529,801.25,1124.7529,805.25,1114.7529,801.25,1118.7529" style="stroke:#A80036;stroke-width:1.0;"/><line style="stroke:#A80036;stroke-width:1.5;" x1="91.5" x2="91.5" y1="126.6357" y2="131.6357"/><line style="stroke:#A80036;stroke-width:1.5;" x1="91.5" x2="449.25" y1="131.6357" y2="131.6357"/><line style="stroke:#A80036;stroke-width:1.5;" x1="449.25" x2="449.25" y1="131.6357" y2="146.6357"/><polygon fill="#A80036" points="445.25,136.6357,449.25,146.6357,453.25,136.6357,449.25,140.6357" style="stroke:#A80036;stroke-width:1.0;"/><line style="stroke:#A80036;stroke-width:1.5;" x1="449.25" x2="449.25" y1="180.6045" y2="185.6045"/><line style="stroke:#A80036;stroke-width:1.5;" x1="449.25" x2="91.5" y1="185.6045" y2="185.6045"/><line style="stroke:#A80036;stroke-width:1.5;" x1="91.5" x2="91.5" y1="185.6045" y2="200.6045"/><polygon fill="#A80036" points="87.5,190.6045,91.5,200.6045,95.5,190.6045,91.5,194.6045" style="stroke:#A80036;stroke-width:1.0;"/><line style="stroke:#A80036;stroke-width:1.5;" x1="91.5" x2="91.5" y1="234.5732" y2="239.5732"/><line style="stroke:#A80036;stroke-width:1.5;" x1="91.5" x2="449.25" y1="239.5732" y2="239.5732"/><line style="stroke:#A80036;stroke-width:1.5;" x1="449.25" x2="449.25" y1="239.5732" y2="254.5732"/><polygon fill="#A80036" points="445.25,244.5732,449.25,254.5732,453.25,244.5732,449.25,248.5732" style="stroke:#A80036;stroke-width:1.0;"/><line style="stroke:#A80036;stroke-width:1.5;" x1="979.5" x2="979.5" y1="494.417" y2="499.417"/><line style="stroke:#A80036;stroke-width:1.5;" x1="979.5" x2="625.25" y1="499.417" y2="499.417"/><line style="stroke:#A80036;stroke-width:1.5;" x1="625.25" x2="625.25" y1="499.417" y2="514.417"/><polygon fill="#A80036" points="621.25,504.417,625.25,514.417,629.25,504.417,625.25,508.417" style="stroke:#A80036;stroke-width:1.0;"/><line style="stroke:#A80036;stroke-width:1.5;" x1="541" x2="541" y1="328.5107" y2="332.5107"/><line style="stroke:#A80036;stroke-width:1.5;" x1="541" x2="893" y1="332.5107" y2="332.5107"/><line style="stroke:#A80036;stroke-width:1.5;" x1="893" x2="893" y1="332.5107" y2="348.5107"/><polygon fill="#A80036" points="889,338.5107,893,348.5107,897,338.5107,893,342.5107" style="stroke:#A80036;stroke-width:1.0;"/><line style="stroke:#A80036;stroke-width:1.5;" x1="449.25" x2="449.25" y1="656.292" y2="661.292"/><line style="stroke:#A80036;stroke-width:1.5;" x1="449.25" x2="91.5" y1="661.292" y2="661.292"/><line style="stroke:#A80036;stroke-width:1.5;" x1="91.5" x2="91.5" y1="661.292" y2="676.292"/><polygon fill="#A80036" points="87.5,666.292,91.5,676.292,95.5,666.292,91.5,670.292" style="stroke:#A80036;stroke-width:1.0;"/><line style="stroke:#A80036;stroke-width:1.5;" x1="449.25" x2="449.25" y1="822.1982" y2="827.1982"/><line style="stroke:#A80036;stroke-width:1.5;" x1="449.25" x2="91.5" y1="827.1982" y2="827.1982"/><line style="stroke:#A80036;stroke-width:1.5;" x1="91.5" x2="91.5" y1="827.1982" y2="842.1982"/><polygon fill="#A80036" points="87.5,832.1982,91.5,842.1982,95.5,832.1982,91.5,836.1982" style="stroke:#A80036;stroke-width:1.0;"/><line style="stroke:#A80036;stroke-width:1.5;" x1="91.5" x2="91.5" y1="890.1357" y2="895.1357"/><line style="stroke:#A80036;stroke-width:1.5;" x1="91.5" x2="449.25" y1="895.1357" y2="895.1357"/><line style="stroke:#A80036;stroke-width:1.5;" x1="449.25" x2="449.25" y1="895.1357" y2="910.1357"/><polygon fill="#A80036" points="445.25,900.1357,449.25,910.1357,453.25,900.1357,449.25,904.1357" style="stroke:#A80036;stroke-width:1.0;"/><line style="stroke:#A80036;stroke-width:1.5;" x1="449.25" x2="449.25" y1="1036.8154" y2="1041.8154"/><line style="stroke:#A80036;stroke-width:1.5;" x1="449.25" x2="801.25" y1="1041.8154" y2="1041.8154"/><line style="stroke:#A80036;stroke-width:1.5;" x1="801.25" x2="801.25" y1="1041.8154" y2="1056.8154"/><polygon fill="#A80036" points="797.25,1046.8154,801.25,1056.8154,805.25,1046.8154,801.25,1050.8154" style="stroke:#A80036;stroke-width:1.0;"/><line style="stroke:#A80036;stroke-width:1.5;" x1="1053.25" x2="1053.25" y1="756.2295" y2="924.9092"/><line style="stroke:#A80036;stroke-width:1.5;" x1="1053.25" x2="461.25" y1="756.2295" y2="756.2295"/><polygon fill="#A80036" points="471.25,752.2295,461.25,756.2295,471.25,760.2295,467.25,756.2295" style="stroke:#A80036;stroke-width:1.0;"/><line style="stroke:#A80036;stroke-width:1.5;" x1="91.5" x2="91.5" y1="724.2295" y2="729.2295"/><line style="stroke:#A80036;stroke-width:1.5;" x1="91.5" x2="449.25" y1="729.2295" y2="729.2295"/><line style="stroke:#A80036;stroke-width:1.5;" x1="449.25" x2="449.25" y1="729.2295" y2="744.2295"/><polygon fill="#A80036" points="445.25,734.2295,449.25,744.2295,453.25,734.2295,449.25,738.2295" style="stroke:#A80036;stroke-width:1.0;"/><line style="stroke:#A80036;stroke-width:1.5;" x1="801.25" x2="801.25" y1="1150.3623" y2="1155.3623"/><line style="stroke:#A80036;stroke-width:1.5;" x1="801.25" x2="449.25" y1="1155.3623" y2="1155.3623"/><line style="stroke:#A80036;stroke-width:1.5;" x1="449.25" x2="449.25" y1="1155.3623" y2="1170.3623"/><polygon fill="#A80036" points="445.25,1160.3623,449.25,1170.3623,453.25,1160.3623,449.25,1164.3623" style="stroke:#A80036;stroke-width:1.0;"/><text fill="#000000" font-family="sans-serif" font-size="18" lengthAdjust="spacing" textLength="134" x="26.5" y="29.4531">Пользователь</text><text fill="#000000" font-family="sans-serif" font-size="18" lengthAdjust="spacing" textLength="39" x="418.125" y="29.4531">АТМ</text><text fill="#000000" font-family="sans-serif" font-size="18" lengthAdjust="spacing" textLength="145" x="869.75" y="29.4531">Банковское ПО</text><!--MD5=[bf26c873bdd66f66117f9f05288fa425]
@startuml
|Пользователь|
start
:Нажать 
"Снятие наличных";

|АТМ|
:запрос ввода PIN;

|Пользователь|
:Ввод PIN;

|АТМ|
:запрос проверки 
данных и PIN;
 fork
|АТМ|
:ожидание проверки 
данных и PIN;
fork again
|Банковское ПО|
:Проверка данных и PIN;

if (есть ответ системы?) then (Да)
#palegreen: данные корректны;

 else (Нет)
#pink: Ошибка: нет 
ответа от системы;
|АТМ|
#pink:предложение 
вернуть карту;
detach
endif


|АТМ|
endfork

|АТМ|
:запрос выбора 
валюты операции;

|Пользователь|
: выбор валюты
 операции;


repeat 
|АТМ|
:запрос ввода суммы операции;

|Пользователь|
: набор суммы 
операции;

|АТМ|
:проверка наличия 
средств в АТМ;

: Запрос проверки 
средств на карте;
|Банковское ПО|
:Проверка достаточности 
средств на карте;

 backward: Ошибка: средств не достаточно;
repeat while (достаточно 
средств на карте?) is (Нет)


|АТМ|
:расчет и выдача
средств;



stop
@enduml

PlantUML version 1.2021.17beta4(Unknown compile time)
(GPL source distribution)
Java Runtime: Java(TM) SE Runtime Environment
JVM: Java HotSpot(TM) 64-Bit Server VM
Default Encoding: UTF-8
Language: en
Country: US
--></g></svg>