<?xml version="1.0" encoding="UTF-8" standalone="no"?><svg xmlns="http://www.w3.org/2000/svg" xmlns:xlink="http://www.w3.org/1999/xlink" contentScriptType="application/ecmascript" contentStyleType="text/css" height="860px" preserveAspectRatio="none" style="width:1365px;height:860px;background:#FFFFFF;" version="1.1" viewBox="0 0 1365 860" width="1365px" zoomAndPan="magnify"><defs><filter height="300%" id="fdaadrtd7a2z5" width="300%" x="-1" y="-1"><feGaussianBlur result="blurOut" stdDeviation="2.0"/><feColorMatrix in="blurOut" result="blurOut2" type="matrix" values="0 0 0 0 0 0 0 0 0 0 0 0 0 0 0 0 0 0 .4 0"/><feOffset dx="4.0" dy="4.0" in="blurOut2" result="blurOut3"/><feBlend in="SourceGraphic" in2="blurOut3" mode="normal"/></filter></defs><g><!--MD5=[7727584e4826944d4ad925785137a196]
class Пользователь--><rect codeLine="1" fill="#FEFECE" filter="url(#fdaadrtd7a2z5)" height="112.0234" id="Пользователь" style="stroke:#A80036;stroke-width:1.5;" width="149" x="22.5" y="39"/><ellipse cx="50.1" cy="55" fill="#ADD1B2" rx="11" ry="11" style="stroke:#A80036;stroke-width:1.0;"/><path d="M52.4438,50.6719 C51.5063,50.2344 50.9125,50.0938 50.0375,50.0938 C47.4125,50.0938 45.4125,52.1719 45.4125,54.8906 L45.4125,56.0156 C45.4125,58.5938 47.5219,60.4844 50.4125,60.4844 C51.6313,60.4844 52.7875,60.1875 53.5375,59.6406 C54.1156,59.2344 54.4438,58.7813 54.4438,58.3906 C54.4438,57.9375 54.0531,57.5469 53.5844,57.5469 C53.3656,57.5469 53.1625,57.625 52.975,57.8125 C52.5219,58.2969 52.5219,58.2969 52.3344,58.3906 C51.9125,58.6563 51.225,58.7813 50.4594,58.7813 C48.4125,58.7813 47.1156,57.6875 47.1156,55.9844 L47.1156,54.8906 C47.1156,53.1094 48.3656,51.7969 50.1,51.7969 C50.6781,51.7969 51.2875,51.9531 51.7563,52.2031 C52.2406,52.4844 52.4125,52.7031 52.5063,53.1094 C52.5688,53.5156 52.6,53.6406 52.7406,53.7656 C52.8813,53.9063 53.1156,54.0156 53.3344,54.0156 C53.6,54.0156 53.8656,53.875 54.0375,53.6563 C54.1469,53.5 54.1781,53.3125 54.1781,52.8906 L54.1781,51.4688 C54.1781,51.0313 54.1625,50.9063 54.0688,50.75 C53.9125,50.4844 53.6313,50.3438 53.3344,50.3438 C53.0375,50.3438 52.8344,50.4375 52.6156,50.75 L52.4438,50.6719 Z " fill="#000000"/><text fill="#000000" font-family="sans-serif" font-size="12" lengthAdjust="spacing" textLength="89" x="66.9" y="59.1543">Пользователь</text><line style="stroke:#A80036;stroke-width:1.5;" x1="23.5" x2="170.5" y1="71" y2="71"/><ellipse cx="33.5" cy="82" rx="3" ry="3" style="stroke:#038048;stroke-width:1.0;fill:none;"/><text fill="#000000" font-family="sans-serif" font-size="11" lengthAdjust="spacing" textLength="28" x="42.5" y="85.2104">ФИО</text><ellipse cx="33.5" cy="94.8047" rx="3" ry="3" style="stroke:#038048;stroke-width:1.0;fill:none;"/><text fill="#000000" font-family="sans-serif" font-size="11" lengthAdjust="spacing" textLength="55" x="42.5" y="98.0151">телефон</text><ellipse cx="33.5" cy="107.6094" rx="3" ry="3" style="stroke:#038048;stroke-width:1.0;fill:none;"/><text fill="#000000" font-family="sans-serif" font-size="11" lengthAdjust="spacing" textLength="37" x="42.5" y="110.8198">адрес</text><polygon fill="none" points="33.5,115.4141,37.5,119.4141,33.5,123.4141,29.5,119.4141" style="stroke:#B38D22;stroke-width:1.0;"/><text fill="#000000" font-family="sans-serif" font-size="11" lengthAdjust="spacing" textLength="116" x="42.5" y="123.6245">id в банковском ПО</text><rect fill="none" height="6" style="stroke:#C82930;stroke-width:1.0;" width="6" x="30.5" y="130.2188"/><text fill="#000000" font-family="sans-serif" font-size="11" lengthAdjust="spacing" textLength="123" x="42.5" y="136.4292">паспортные данные</text><line style="stroke:#A80036;stroke-width:1.5;" x1="23.5" x2="170.5" y1="143.0234" y2="143.0234"/><!--MD5=[bf76f413ab37cc32e59dc7129e0bd229]
class Инкассатор--><rect codeLine="9" fill="#FEFECE" filter="url(#fdaadrtd7a2z5)" height="150.4375" id="Инкассатор" style="stroke:#A80036;stroke-width:1.5;" width="176" x="9" y="244"/><ellipse cx="55.75" cy="260" fill="#ADD1B2" rx="11" ry="11" style="stroke:#A80036;stroke-width:1.0;"/><path d="M58.0938,255.6719 C57.1563,255.2344 56.5625,255.0938 55.6875,255.0938 C53.0625,255.0938 51.0625,257.1719 51.0625,259.8906 L51.0625,261.0156 C51.0625,263.5938 53.1719,265.4844 56.0625,265.4844 C57.2813,265.4844 58.4375,265.1875 59.1875,264.6406 C59.7656,264.2344 60.0938,263.7813 60.0938,263.3906 C60.0938,262.9375 59.7031,262.5469 59.2344,262.5469 C59.0156,262.5469 58.8125,262.625 58.625,262.8125 C58.1719,263.2969 58.1719,263.2969 57.9844,263.3906 C57.5625,263.6563 56.875,263.7813 56.1094,263.7813 C54.0625,263.7813 52.7656,262.6875 52.7656,260.9844 L52.7656,259.8906 C52.7656,258.1094 54.0156,256.7969 55.75,256.7969 C56.3281,256.7969 56.9375,256.9531 57.4063,257.2031 C57.8906,257.4844 58.0625,257.7031 58.1563,258.1094 C58.2188,258.5156 58.25,258.6406 58.3906,258.7656 C58.5313,258.9063 58.7656,259.0156 58.9844,259.0156 C59.25,259.0156 59.5156,258.875 59.6875,258.6563 C59.7969,258.5 59.8281,258.3125 59.8281,257.8906 L59.8281,256.4688 C59.8281,256.0313 59.8125,255.9063 59.7188,255.75 C59.5625,255.4844 59.2813,255.3438 58.9844,255.3438 C58.6875,255.3438 58.4844,255.4375 58.2656,255.75 L58.0938,255.6719 Z " fill="#000000"/><text fill="#000000" font-family="sans-serif" font-size="12" lengthAdjust="spacing" textLength="74" x="76.25" y="264.1543">Инкассатор</text><line style="stroke:#A80036;stroke-width:1.5;" x1="10" x2="184" y1="276" y2="276"/><ellipse cx="20" cy="287" rx="3" ry="3" style="stroke:#038048;stroke-width:1.0;fill:none;"/><text fill="#000000" font-family="sans-serif" font-size="11" lengthAdjust="spacing" textLength="28" x="29" y="290.2104">ФИО</text><ellipse cx="20" cy="299.8047" rx="3" ry="3" style="stroke:#038048;stroke-width:1.0;fill:none;"/><text fill="#000000" font-family="sans-serif" font-size="11" lengthAdjust="spacing" textLength="55" x="29" y="303.0151">телефон</text><ellipse cx="20" cy="312.6094" rx="3" ry="3" style="stroke:#038048;stroke-width:1.0;fill:none;"/><text fill="#000000" font-family="sans-serif" font-size="11" lengthAdjust="spacing" textLength="37" x="29" y="315.8198">адрес</text><polygon fill="none" points="20,320.4141,24,324.4141,20,328.4141,16,324.4141" style="stroke:#B38D22;stroke-width:1.0;"/><text fill="#000000" font-family="sans-serif" font-size="11" lengthAdjust="spacing" textLength="116" x="29" y="328.6245">id в банковском ПО</text><rect fill="none" height="6" style="stroke:#C82930;stroke-width:1.0;" width="6" x="17" y="335.2188"/><text fill="#000000" font-family="sans-serif" font-size="11" lengthAdjust="spacing" textLength="123" x="29" y="341.4292">паспортные данные</text><rect fill="none" height="6" style="stroke:#C82930;stroke-width:1.0;" width="6" x="17" y="348.0234"/><text fill="#000000" font-family="sans-serif" font-size="11" lengthAdjust="spacing" textLength="34" x="29" y="354.2339">логин</text><rect fill="none" height="6" style="stroke:#C82930;stroke-width:1.0;" width="6" x="17" y="360.8281"/><text fill="#000000" font-family="sans-serif" font-size="11" lengthAdjust="spacing" textLength="42" x="29" y="367.0386">пароль</text><line style="stroke:#A80036;stroke-width:1.5;" x1="10" x2="184" y1="373.6328" y2="373.6328"/><polygon fill="#4177AF" points="20,380.6328,16,386.6328,24,386.6328" style="stroke:#1963A0;stroke-width:1.0;"/><text fill="#000000" font-family="sans-serif" font-size="11" lengthAdjust="spacing" textLength="150" x="29" y="387.8433">получить доступ к АТМ()</text><!--MD5=[f90db410d6a3e5ca7bacef73a9f7f6fd]
class Клиент--><rect codeLine="20" fill="#FEFECE" filter="url(#fdaadrtd7a2z5)" height="150.4375" id="Клиент" style="stroke:#A80036;stroke-width:1.5;" width="162" x="220" y="244"/><ellipse cx="273.75" cy="260" fill="#ADD1B2" rx="11" ry="11" style="stroke:#A80036;stroke-width:1.0;"/><path d="M276.0938,255.6719 C275.1563,255.2344 274.5625,255.0938 273.6875,255.0938 C271.0625,255.0938 269.0625,257.1719 269.0625,259.8906 L269.0625,261.0156 C269.0625,263.5938 271.1719,265.4844 274.0625,265.4844 C275.2813,265.4844 276.4375,265.1875 277.1875,264.6406 C277.7656,264.2344 278.0938,263.7813 278.0938,263.3906 C278.0938,262.9375 277.7031,262.5469 277.2344,262.5469 C277.0156,262.5469 276.8125,262.625 276.625,262.8125 C276.1719,263.2969 276.1719,263.2969 275.9844,263.3906 C275.5625,263.6563 274.875,263.7813 274.1094,263.7813 C272.0625,263.7813 270.7656,262.6875 270.7656,260.9844 L270.7656,259.8906 C270.7656,258.1094 272.0156,256.7969 273.75,256.7969 C274.3281,256.7969 274.9375,256.9531 275.4063,257.2031 C275.8906,257.4844 276.0625,257.7031 276.1563,258.1094 C276.2188,258.5156 276.25,258.6406 276.3906,258.7656 C276.5313,258.9063 276.7656,259.0156 276.9844,259.0156 C277.25,259.0156 277.5156,258.875 277.6875,258.6563 C277.7969,258.5 277.8281,258.3125 277.8281,257.8906 L277.8281,256.4688 C277.8281,256.0313 277.8125,255.9063 277.7188,255.75 C277.5625,255.4844 277.2813,255.3438 276.9844,255.3438 C276.6875,255.3438 276.4844,255.4375 276.2656,255.75 L276.0938,255.6719 Z " fill="#000000"/><text fill="#000000" font-family="sans-serif" font-size="12" lengthAdjust="spacing" textLength="46" x="294.25" y="264.1543">Клиент</text><line style="stroke:#A80036;stroke-width:1.5;" x1="221" x2="381" y1="276" y2="276"/><ellipse cx="231" cy="287" rx="3" ry="3" style="stroke:#038048;stroke-width:1.0;fill:none;"/><text fill="#000000" font-family="sans-serif" font-size="11" lengthAdjust="spacing" textLength="28" x="240" y="290.2104">ФИО</text><ellipse cx="231" cy="299.8047" rx="3" ry="3" style="stroke:#038048;stroke-width:1.0;fill:none;"/><text fill="#000000" font-family="sans-serif" font-size="11" lengthAdjust="spacing" textLength="55" x="240" y="303.0151">телефон</text><ellipse cx="231" cy="312.6094" rx="3" ry="3" style="stroke:#038048;stroke-width:1.0;fill:none;"/><text fill="#000000" font-family="sans-serif" font-size="11" lengthAdjust="spacing" textLength="37" x="240" y="315.8198">адрес</text><polygon fill="none" points="231,320.4141,235,324.4141,231,328.4141,227,324.4141" style="stroke:#B38D22;stroke-width:1.0;"/><text fill="#000000" font-family="sans-serif" font-size="11" lengthAdjust="spacing" textLength="116" x="240" y="328.6245">id в банковском ПО</text><rect fill="none" height="6" style="stroke:#C82930;stroke-width:1.0;" width="6" x="228" y="335.2188"/><text fill="#000000" font-family="sans-serif" font-size="11" lengthAdjust="spacing" textLength="123" x="240" y="341.4292">паспортные данные</text><line style="stroke:#A80036;stroke-width:1.5;" x1="221" x2="381" y1="348.0234" y2="348.0234"/><ellipse cx="231" cy="359.0234" fill="#84BE84" rx="3" ry="3" style="stroke:#038048;stroke-width:1.0;"/><text fill="#000000" font-family="sans-serif" font-size="11" lengthAdjust="spacing" textLength="87" x="240" y="362.2339">set операция()</text><ellipse cx="231" cy="371.8281" fill="#84BE84" rx="3" ry="3" style="stroke:#038048;stroke-width:1.0;"/><text fill="#000000" font-family="sans-serif" font-size="11" lengthAdjust="spacing" textLength="127" x="240" y="375.0386">set сумма операции()</text><ellipse cx="231" cy="384.6328" fill="#84BE84" rx="3" ry="3" style="stroke:#038048;stroke-width:1.0;"/><text fill="#000000" font-family="sans-serif" font-size="11" lengthAdjust="spacing" textLength="136" x="240" y="387.8433">set валюта операции()</text><!--MD5=[451846e8dc9461bb1c8736829bf04251]
class Карта--><rect codeLine="35" fill="#FEFECE" filter="url(#fdaadrtd7a2z5)" height="137.6328" id="Карта" style="stroke:#A80036;stroke-width:1.5;" width="148" x="235" y="471"/><ellipse cx="286.25" cy="487" fill="#ADD1B2" rx="11" ry="11" style="stroke:#A80036;stroke-width:1.0;"/><path d="M288.5938,482.6719 C287.6563,482.2344 287.0625,482.0938 286.1875,482.0938 C283.5625,482.0938 281.5625,484.1719 281.5625,486.8906 L281.5625,488.0156 C281.5625,490.5938 283.6719,492.4844 286.5625,492.4844 C287.7813,492.4844 288.9375,492.1875 289.6875,491.6406 C290.2656,491.2344 290.5938,490.7813 290.5938,490.3906 C290.5938,489.9375 290.2031,489.5469 289.7344,489.5469 C289.5156,489.5469 289.3125,489.625 289.125,489.8125 C288.6719,490.2969 288.6719,490.2969 288.4844,490.3906 C288.0625,490.6563 287.375,490.7813 286.6094,490.7813 C284.5625,490.7813 283.2656,489.6875 283.2656,487.9844 L283.2656,486.8906 C283.2656,485.1094 284.5156,483.7969 286.25,483.7969 C286.8281,483.7969 287.4375,483.9531 287.9063,484.2031 C288.3906,484.4844 288.5625,484.7031 288.6563,485.1094 C288.7188,485.5156 288.75,485.6406 288.8906,485.7656 C289.0313,485.9063 289.2656,486.0156 289.4844,486.0156 C289.75,486.0156 290.0156,485.875 290.1875,485.6563 C290.2969,485.5 290.3281,485.3125 290.3281,484.8906 L290.3281,483.4688 C290.3281,483.0313 290.3125,482.9063 290.2188,482.75 C290.0625,482.4844 289.7813,482.3438 289.4844,482.3438 C289.1875,482.3438 288.9844,482.4375 288.7656,482.75 L288.5938,482.6719 Z " fill="#000000"/><text fill="#000000" font-family="sans-serif" font-size="12" lengthAdjust="spacing" textLength="37" x="306.75" y="491.1543">Карта</text><line style="stroke:#A80036;stroke-width:1.5;" x1="236" x2="382" y1="503" y2="503"/><rect fill="none" height="6" style="stroke:#C82930;stroke-width:1.0;" width="6" x="243" y="511"/><text fill="#000000" font-family="sans-serif" font-size="11" lengthAdjust="spacing" textLength="51" x="255" y="517.2104">CVC код</text><polygon fill="none" points="246,521.8047,250,525.8047,246,529.8047,242,525.8047" style="stroke:#B38D22;stroke-width:1.0;"/><text fill="#000000" font-family="sans-serif" font-size="11" lengthAdjust="spacing" textLength="44" x="255" y="530.0151">PIN код</text><ellipse cx="246" cy="539.6094" rx="3" ry="3" style="stroke:#038048;stroke-width:1.0;fill:none;"/><text fill="#000000" font-family="sans-serif" font-size="11" lengthAdjust="spacing" textLength="78" x="255" y="542.8198">номер карты</text><ellipse cx="246" cy="552.4141" rx="3" ry="3" style="stroke:#038048;stroke-width:1.0;fill:none;"/><text fill="#000000" font-family="sans-serif" font-size="11" lengthAdjust="spacing" textLength="89" x="255" y="555.6245">срок действия</text><line style="stroke:#A80036;stroke-width:1.5;" x1="236" x2="382" y1="562.2188" y2="562.2188"/><polygon fill="#4177AF" points="246,569.2188,242,575.2188,250,575.2188" style="stroke:#1963A0;stroke-width:1.0;"/><text fill="#000000" font-family="sans-serif" font-size="11" lengthAdjust="spacing" textLength="78" x="255" y="576.4292">сверить PIN()</text><ellipse cx="246" cy="586.0234" fill="#84BE84" rx="3" ry="3" style="stroke:#038048;stroke-width:1.0;"/><text fill="#000000" font-family="sans-serif" font-size="11" lengthAdjust="spacing" textLength="110" x="255" y="589.2339">get Номер карты()</text><ellipse cx="246" cy="598.8281" fill="#84BE84" rx="3" ry="3" style="stroke:#038048;stroke-width:1.0;"/><text fill="#000000" font-family="sans-serif" font-size="11" lengthAdjust="spacing" textLength="122" x="255" y="602.0386">get Срок действия()</text><!--MD5=[967cb2756e922aaf7e14287e4fe79bc8]
class Счет--><rect codeLine="47" fill="#FEFECE" filter="url(#fdaadrtd7a2z5)" height="112.0234" id="Счет" style="stroke:#A80036;stroke-width:1.5;" width="155" x="233.5" y="702"/><ellipse cx="291.75" cy="718" fill="#ADD1B2" rx="11" ry="11" style="stroke:#A80036;stroke-width:1.0;"/><path d="M294.0938,713.6719 C293.1563,713.2344 292.5625,713.0938 291.6875,713.0938 C289.0625,713.0938 287.0625,715.1719 287.0625,717.8906 L287.0625,719.0156 C287.0625,721.5938 289.1719,723.4844 292.0625,723.4844 C293.2813,723.4844 294.4375,723.1875 295.1875,722.6406 C295.7656,722.2344 296.0938,721.7813 296.0938,721.3906 C296.0938,720.9375 295.7031,720.5469 295.2344,720.5469 C295.0156,720.5469 294.8125,720.625 294.625,720.8125 C294.1719,721.2969 294.1719,721.2969 293.9844,721.3906 C293.5625,721.6563 292.875,721.7813 292.1094,721.7813 C290.0625,721.7813 288.7656,720.6875 288.7656,718.9844 L288.7656,717.8906 C288.7656,716.1094 290.0156,714.7969 291.75,714.7969 C292.3281,714.7969 292.9375,714.9531 293.4063,715.2031 C293.8906,715.4844 294.0625,715.7031 294.1563,716.1094 C294.2188,716.5156 294.25,716.6406 294.3906,716.7656 C294.5313,716.9063 294.7656,717.0156 294.9844,717.0156 C295.25,717.0156 295.5156,716.875 295.6875,716.6563 C295.7969,716.5 295.8281,716.3125 295.8281,715.8906 L295.8281,714.4688 C295.8281,714.0313 295.8125,713.9063 295.7188,713.75 C295.5625,713.4844 295.2813,713.3438 294.9844,713.3438 C294.6875,713.3438 294.4844,713.4375 294.2656,713.75 L294.0938,713.6719 Z " fill="#000000"/><text fill="#000000" font-family="sans-serif" font-size="12" lengthAdjust="spacing" textLength="30" x="312.25" y="722.1543">Счет</text><line style="stroke:#A80036;stroke-width:1.5;" x1="234.5" x2="387.5" y1="734" y2="734"/><polygon fill="none" points="244.5,741,240.5,747,248.5,747" style="stroke:#1963A0;stroke-width:1.0;"/><text fill="#000000" font-family="sans-serif" font-size="11" lengthAdjust="spacing" textLength="99" x="253.5" y="748.2104">владелец счета</text><ellipse cx="244.5" cy="757.8047" rx="3" ry="3" style="stroke:#038048;stroke-width:1.0;fill:none;"/><text fill="#000000" font-family="sans-serif" font-size="11" lengthAdjust="spacing" textLength="89" x="253.5" y="761.0151">срок действия</text><ellipse cx="244.5" cy="770.6094" rx="3" ry="3" style="stroke:#038048;stroke-width:1.0;fill:none;"/><text fill="#000000" font-family="sans-serif" font-size="11" lengthAdjust="spacing" textLength="84" x="253.5" y="773.8198">валюта счета</text><ellipse cx="244.5" cy="783.4141" rx="3" ry="3" style="stroke:#038048;stroke-width:1.0;fill:none;"/><text fill="#000000" font-family="sans-serif" font-size="11" lengthAdjust="spacing" textLength="129" x="253.5" y="786.6245">остаток ден.средств</text><line style="stroke:#A80036;stroke-width:1.5;" x1="234.5" x2="387.5" y1="793.2188" y2="793.2188"/><ellipse cx="244.5" cy="804.2188" fill="#84BE84" rx="3" ry="3" style="stroke:#038048;stroke-width:1.0;"/><text fill="#000000" font-family="sans-serif" font-size="11" lengthAdjust="spacing" textLength="79" x="253.5" y="807.4292">get остаток()</text><!--MD5=[19fd84257a3b6623b77036492cc526ba]
class АТМ--><rect codeLine="58" fill="#FEFECE" filter="url(#fdaadrtd7a2z5)" height="163.2422" id="АТМ" style="stroke:#A80036;stroke-width:1.5;" width="297" x="206.5" y="13.5"/><ellipse cx="338.25" cy="29.5" fill="#ADD1B2" rx="11" ry="11" style="stroke:#A80036;stroke-width:1.0;"/><path d="M340.5938,25.1719 C339.6563,24.7344 339.0625,24.5938 338.1875,24.5938 C335.5625,24.5938 333.5625,26.6719 333.5625,29.3906 L333.5625,30.5156 C333.5625,33.0938 335.6719,34.9844 338.5625,34.9844 C339.7813,34.9844 340.9375,34.6875 341.6875,34.1406 C342.2656,33.7344 342.5938,33.2813 342.5938,32.8906 C342.5938,32.4375 342.2031,32.0469 341.7344,32.0469 C341.5156,32.0469 341.3125,32.125 341.125,32.3125 C340.6719,32.7969 340.6719,32.7969 340.4844,32.8906 C340.0625,33.1563 339.375,33.2813 338.6094,33.2813 C336.5625,33.2813 335.2656,32.1875 335.2656,30.4844 L335.2656,29.3906 C335.2656,27.6094 336.5156,26.2969 338.25,26.2969 C338.8281,26.2969 339.4375,26.4531 339.9063,26.7031 C340.3906,26.9844 340.5625,27.2031 340.6563,27.6094 C340.7188,28.0156 340.75,28.1406 340.8906,28.2656 C341.0313,28.4063 341.2656,28.5156 341.4844,28.5156 C341.75,28.5156 342.0156,28.375 342.1875,28.1563 C342.2969,28 342.3281,27.8125 342.3281,27.3906 L342.3281,25.9688 C342.3281,25.5313 342.3125,25.4063 342.2188,25.25 C342.0625,24.9844 341.7813,24.8438 341.4844,24.8438 C341.1875,24.8438 340.9844,24.9375 340.7656,25.25 L340.5938,25.1719 Z " fill="#000000"/><text fill="#000000" font-family="sans-serif" font-size="12" lengthAdjust="spacing" textLength="25" x="358.75" y="33.6543">АТМ</text><line style="stroke:#A80036;stroke-width:1.5;" x1="207.5" x2="502.5" y1="45.5" y2="45.5"/><polygon fill="none" points="217.5,52.5,213.5,58.5,221.5,58.5" style="stroke:#1963A0;stroke-width:1.0;"/><text fill="#000000" font-family="sans-serif" font-size="11" lengthAdjust="spacing" textLength="88" x="226.5" y="59.7104">владелец ATM</text><polygon fill="none" points="217.5,65.3047,213.5,71.3047,221.5,71.3047" style="stroke:#1963A0;stroke-width:1.0;"/><text fill="#000000" font-family="sans-serif" font-size="11" lengthAdjust="spacing" textLength="99" x="226.5" y="72.5151">владелец счета</text><line style="stroke:#A80036;stroke-width:1.5;" x1="207.5" x2="502.5" y1="79.1094" y2="79.1094"/><ellipse cx="217.5" cy="90.1094" fill="#84BE84" rx="3" ry="3" style="stroke:#038048;stroke-width:1.0;"/><text fill="#000000" font-family="sans-serif" font-size="11" lengthAdjust="spacing" textLength="48" x="226.5" y="93.3198">get PIN()</text><ellipse cx="217.5" cy="102.9141" fill="#84BE84" rx="3" ry="3" style="stroke:#038048;stroke-width:1.0;"/><text fill="#000000" font-family="sans-serif" font-size="11" lengthAdjust="spacing" textLength="88" x="226.5" y="106.1245">get операция()</text><ellipse cx="217.5" cy="115.7188" fill="#84BE84" rx="3" ry="3" style="stroke:#038048;stroke-width:1.0;"/><text fill="#000000" font-family="sans-serif" font-size="11" lengthAdjust="spacing" textLength="128" x="226.5" y="118.9292">get сумма операции()</text><ellipse cx="217.5" cy="128.5234" fill="#84BE84" rx="3" ry="3" style="stroke:#038048;stroke-width:1.0;"/><text fill="#000000" font-family="sans-serif" font-size="11" lengthAdjust="spacing" textLength="137" x="226.5" y="131.7339">get валюта операции()</text><polygon fill="#4177AF" points="217.5,137.3281,213.5,143.3281,221.5,143.3281" style="stroke:#1963A0;stroke-width:1.0;"/><text fill="#000000" font-family="sans-serif" font-size="11" lengthAdjust="spacing" textLength="230" x="226.5" y="144.5386">check наличие средств в Банкомате()</text><polygon fill="#4177AF" points="217.5,150.1328,213.5,156.1328,221.5,156.1328" style="stroke:#1963A0;stroke-width:1.0;"/><text fill="#000000" font-family="sans-serif" font-size="11" lengthAdjust="spacing" textLength="250" x="226.5" y="157.3433">send запрос на проверку данных карты()</text><polygon fill="#4177AF" points="217.5,162.9375,213.5,168.9375,221.5,168.9375" style="stroke:#1963A0;stroke-width:1.0;"/><text fill="#000000" font-family="sans-serif" font-size="11" lengthAdjust="spacing" textLength="271" x="226.5" y="170.1479">send запрос на проверку средств на карте()</text><!--MD5=[085a688bcda2e27066d6ca120c820621]
class BankSystem--><rect codeLine="71" fill="#FEFECE" filter="url(#fdaadrtd7a2z5)" height="176.0469" id="BankSystem" style="stroke:#A80036;stroke-width:1.5;" width="584" x="539" y="7"/><ellipse cx="789.75" cy="23" fill="#ADD1B2" rx="11" ry="11" style="stroke:#A80036;stroke-width:1.0;"/><path d="M792.0938,18.6719 C791.1563,18.2344 790.5625,18.0938 789.6875,18.0938 C787.0625,18.0938 785.0625,20.1719 785.0625,22.8906 L785.0625,24.0156 C785.0625,26.5938 787.1719,28.4844 790.0625,28.4844 C791.2813,28.4844 792.4375,28.1875 793.1875,27.6406 C793.7656,27.2344 794.0938,26.7813 794.0938,26.3906 C794.0938,25.9375 793.7031,25.5469 793.2344,25.5469 C793.0156,25.5469 792.8125,25.625 792.625,25.8125 C792.1719,26.2969 792.1719,26.2969 791.9844,26.3906 C791.5625,26.6563 790.875,26.7813 790.1094,26.7813 C788.0625,26.7813 786.7656,25.6875 786.7656,23.9844 L786.7656,22.8906 C786.7656,21.1094 788.0156,19.7969 789.75,19.7969 C790.3281,19.7969 790.9375,19.9531 791.4063,20.2031 C791.8906,20.4844 792.0625,20.7031 792.1563,21.1094 C792.2188,21.5156 792.25,21.6406 792.3906,21.7656 C792.5313,21.9063 792.7656,22.0156 792.9844,22.0156 C793.25,22.0156 793.5156,21.875 793.6875,21.6563 C793.7969,21.5 793.8281,21.3125 793.8281,20.8906 L793.8281,19.4688 C793.8281,19.0313 793.8125,18.9063 793.7188,18.75 C793.5625,18.4844 793.2813,18.3438 792.9844,18.3438 C792.6875,18.3438 792.4844,18.4375 792.2656,18.75 L792.0938,18.6719 Z " fill="#000000"/><text fill="#000000" font-family="sans-serif" font-size="12" lengthAdjust="spacing" textLength="74" x="810.25" y="27.1543">BankSystem</text><line style="stroke:#A80036;stroke-width:1.5;" x1="540" x2="1122" y1="39" y2="39"/><ellipse cx="550" cy="50" rx="3" ry="3" style="stroke:#038048;stroke-width:1.0;fill:none;"/><text fill="#000000" font-family="sans-serif" font-size="11" lengthAdjust="spacing" textLength="57" x="559" y="53.2104">Название</text><ellipse cx="550" cy="62.8047" rx="3" ry="3" style="stroke:#038048;stroke-width:1.0;fill:none;"/><text fill="#000000" font-family="sans-serif" font-size="11" lengthAdjust="spacing" textLength="58" x="559" y="66.0151">Лицензии</text><ellipse cx="550" cy="75.6094" rx="3" ry="3" style="stroke:#038048;stroke-width:1.0;fill:none;"/><text fill="#000000" font-family="sans-serif" font-size="11" lengthAdjust="spacing" textLength="23" x="559" y="78.8198">УНП</text><rect fill="none" height="6" style="stroke:#C82930;stroke-width:1.0;" width="6" x="547" y="85.4141"/><text fill="#000000" font-family="sans-serif" font-size="11" lengthAdjust="spacing" textLength="527" x="559" y="91.6245">Данные о клиентах { ФИО / УНП, телефон, адрес, дата рождения/дата регистрации}</text><rect fill="none" height="6" style="stroke:#C82930;stroke-width:1.0;" width="6" x="547" y="98.2188"/><text fill="#000000" font-family="sans-serif" font-size="11" lengthAdjust="spacing" textLength="558" x="559" y="104.4292">Данные о счетах клиентов { владелец, срок действия, вид счета, валюта счета, остаток}</text><line style="stroke:#A80036;stroke-width:1.5;" x1="540" x2="1122" y1="111.0234" y2="111.0234"/><polygon fill="#4177AF" points="550,118.0234,546,124.0234,554,124.0234" style="stroke:#1963A0;stroke-width:1.0;"/><text fill="#000000" font-family="sans-serif" font-size="11" lengthAdjust="spacing" textLength="241" x="559" y="125.2339">get запрос на проверку данных карты()</text><polygon fill="#4177AF" points="550,130.8281,546,136.8281,554,136.8281" style="stroke:#1963A0;stroke-width:1.0;"/><text fill="#000000" font-family="sans-serif" font-size="11" lengthAdjust="spacing" textLength="262" x="559" y="138.0386">get запрос на проверку средств на карте()</text><ellipse cx="550" cy="147.6328" fill="#84BE84" rx="3" ry="3" style="stroke:#038048;stroke-width:1.0;"/><text fill="#000000" font-family="sans-serif" font-size="11" lengthAdjust="spacing" textLength="186" x="559" y="150.8433">send ответ по данным карты()</text><rect fill="#F24D5C" height="6" style="stroke:#C82930;stroke-width:1.0;" width="6" x="547" y="157.4375"/><text fill="#000000" font-family="sans-serif" font-size="11" lengthAdjust="spacing" textLength="207" x="559" y="163.6479">check наличие средств на счете()</text><ellipse cx="550" cy="173.2422" fill="#84BE84" rx="3" ry="3" style="stroke:#038048;stroke-width:1.0;"/><text fill="#000000" font-family="sans-serif" font-size="11" lengthAdjust="spacing" textLength="301" x="559" y="176.4526">send ответ по достаточности средств на счете()</text><!--MD5=[726b1bdf1c207c9460cb6885cdf3ff47]
class БанковскийСчет--><rect codeLine="87" fill="#FEFECE" filter="url(#fdaadrtd7a2z5)" height="124.8281" id="БанковскийСчет" style="stroke:#A80036;stroke-width:1.5;" width="327" x="666.5" y="256.5"/><ellipse cx="773.25" cy="272.5" fill="#ADD1B2" rx="11" ry="11" style="stroke:#A80036;stroke-width:1.0;"/><path d="M775.5938,268.1719 C774.6563,267.7344 774.0625,267.5938 773.1875,267.5938 C770.5625,267.5938 768.5625,269.6719 768.5625,272.3906 L768.5625,273.5156 C768.5625,276.0938 770.6719,277.9844 773.5625,277.9844 C774.7813,277.9844 775.9375,277.6875 776.6875,277.1406 C777.2656,276.7344 777.5938,276.2813 777.5938,275.8906 C777.5938,275.4375 777.2031,275.0469 776.7344,275.0469 C776.5156,275.0469 776.3125,275.125 776.125,275.3125 C775.6719,275.7969 775.6719,275.7969 775.4844,275.8906 C775.0625,276.1563 774.375,276.2813 773.6094,276.2813 C771.5625,276.2813 770.2656,275.1875 770.2656,273.4844 L770.2656,272.3906 C770.2656,270.6094 771.5156,269.2969 773.25,269.2969 C773.8281,269.2969 774.4375,269.4531 774.9063,269.7031 C775.3906,269.9844 775.5625,270.2031 775.6563,270.6094 C775.7188,271.0156 775.75,271.1406 775.8906,271.2656 C776.0313,271.4063 776.2656,271.5156 776.4844,271.5156 C776.75,271.5156 777.0156,271.375 777.1875,271.1563 C777.2969,271 777.3281,270.8125 777.3281,270.3906 L777.3281,268.9688 C777.3281,268.5313 777.3125,268.4063 777.2188,268.25 C777.0625,267.9844 776.7813,267.8438 776.4844,267.8438 C776.1875,267.8438 775.9844,267.9375 775.7656,268.25 L775.5938,268.1719 Z " fill="#000000"/><text fill="#000000" font-family="sans-serif" font-size="12" lengthAdjust="spacing" textLength="105" x="793.75" y="276.6543">БанковскийСчет</text><line style="stroke:#A80036;stroke-width:1.5;" x1="667.5" x2="992.5" y1="288.5" y2="288.5"/><polygon fill="none" points="677.5,295.5,673.5,301.5,681.5,301.5" style="stroke:#1963A0;stroke-width:1.0;"/><text fill="#000000" font-family="sans-serif" font-size="11" lengthAdjust="spacing" textLength="99" x="686.5" y="302.7104">владелец счета</text><ellipse cx="677.5" cy="312.3047" rx="3" ry="3" style="stroke:#038048;stroke-width:1.0;fill:none;"/><text fill="#000000" font-family="sans-serif" font-size="11" lengthAdjust="spacing" textLength="89" x="686.5" y="315.5151">срок действия</text><ellipse cx="677.5" cy="325.1094" rx="3" ry="3" style="stroke:#038048;stroke-width:1.0;fill:none;"/><text fill="#000000" font-family="sans-serif" font-size="11" lengthAdjust="spacing" textLength="84" x="686.5" y="328.3198">валюта счета</text><rect fill="none" height="6" style="stroke:#C82930;stroke-width:1.0;" width="6" x="674.5" y="334.9141"/><text fill="#000000" font-family="sans-serif" font-size="11" lengthAdjust="spacing" textLength="129" x="686.5" y="341.1245">остаток ден.средств</text><line style="stroke:#A80036;stroke-width:1.5;" x1="667.5" x2="992.5" y1="347.7188" y2="347.7188"/><rect fill="#F24D5C" height="6" style="stroke:#C82930;stroke-width:1.0;" width="6" x="674.5" y="355.7188"/><text fill="#000000" font-family="sans-serif" font-size="11" lengthAdjust="spacing" textLength="207" x="686.5" y="361.9292">check наличие средств на счете()</text><ellipse cx="677.5" cy="371.5234" fill="#84BE84" rx="3" ry="3" style="stroke:#038048;stroke-width:1.0;"/><text fill="#000000" font-family="sans-serif" font-size="11" lengthAdjust="spacing" textLength="301" x="686.5" y="374.7339">send ответ по достаточности средств на счете()</text><!--MD5=[f115bc9fa72b87e29f5f20603abf5165]
class РасчетныйСчет--><rect codeLine="97" fill="#FEFECE" filter="url(#fdaadrtd7a2z5)" height="124.8281" id="РасчетныйСчет" style="stroke:#A80036;stroke-width:1.5;" width="327" x="666.5" y="477.5"/><ellipse cx="777.25" cy="493.5" fill="#ADD1B2" rx="11" ry="11" style="stroke:#A80036;stroke-width:1.0;"/><path d="M779.5938,489.1719 C778.6563,488.7344 778.0625,488.5938 777.1875,488.5938 C774.5625,488.5938 772.5625,490.6719 772.5625,493.3906 L772.5625,494.5156 C772.5625,497.0938 774.6719,498.9844 777.5625,498.9844 C778.7813,498.9844 779.9375,498.6875 780.6875,498.1406 C781.2656,497.7344 781.5938,497.2813 781.5938,496.8906 C781.5938,496.4375 781.2031,496.0469 780.7344,496.0469 C780.5156,496.0469 780.3125,496.125 780.125,496.3125 C779.6719,496.7969 779.6719,496.7969 779.4844,496.8906 C779.0625,497.1563 778.375,497.2813 777.6094,497.2813 C775.5625,497.2813 774.2656,496.1875 774.2656,494.4844 L774.2656,493.3906 C774.2656,491.6094 775.5156,490.2969 777.25,490.2969 C777.8281,490.2969 778.4375,490.4531 778.9063,490.7031 C779.3906,490.9844 779.5625,491.2031 779.6563,491.6094 C779.7188,492.0156 779.75,492.1406 779.8906,492.2656 C780.0313,492.4063 780.2656,492.5156 780.4844,492.5156 C780.75,492.5156 781.0156,492.375 781.1875,492.1563 C781.2969,492 781.3281,491.8125 781.3281,491.3906 L781.3281,489.9688 C781.3281,489.5313 781.3125,489.4063 781.2188,489.25 C781.0625,488.9844 780.7813,488.8438 780.4844,488.8438 C780.1875,488.8438 779.9844,488.9375 779.7656,489.25 L779.5938,489.1719 Z " fill="#000000"/><text fill="#000000" font-family="sans-serif" font-size="12" lengthAdjust="spacing" textLength="97" x="797.75" y="497.6543">РасчетныйСчет</text><line style="stroke:#A80036;stroke-width:1.5;" x1="667.5" x2="992.5" y1="509.5" y2="509.5"/><polygon fill="none" points="677.5,516.5,673.5,522.5,681.5,522.5" style="stroke:#1963A0;stroke-width:1.0;"/><text fill="#000000" font-family="sans-serif" font-size="11" lengthAdjust="spacing" textLength="99" x="686.5" y="523.7104">владелец счета</text><ellipse cx="677.5" cy="533.3047" rx="3" ry="3" style="stroke:#038048;stroke-width:1.0;fill:none;"/><text fill="#000000" font-family="sans-serif" font-size="11" lengthAdjust="spacing" textLength="89" x="686.5" y="536.5151">срок действия</text><ellipse cx="677.5" cy="546.1094" rx="3" ry="3" style="stroke:#038048;stroke-width:1.0;fill:none;"/><text fill="#000000" font-family="sans-serif" font-size="11" lengthAdjust="spacing" textLength="84" x="686.5" y="549.3198">валюта счета</text><rect fill="none" height="6" style="stroke:#C82930;stroke-width:1.0;" width="6" x="674.5" y="555.9141"/><text fill="#000000" font-family="sans-serif" font-size="11" lengthAdjust="spacing" textLength="129" x="686.5" y="562.1245">остаток ден.средств</text><line style="stroke:#A80036;stroke-width:1.5;" x1="667.5" x2="992.5" y1="568.7188" y2="568.7188"/><rect fill="#F24D5C" height="6" style="stroke:#C82930;stroke-width:1.0;" width="6" x="674.5" y="576.7188"/><text fill="#000000" font-family="sans-serif" font-size="11" lengthAdjust="spacing" textLength="207" x="686.5" y="582.9292">check наличие средств на счете()</text><ellipse cx="677.5" cy="592.5234" fill="#84BE84" rx="3" ry="3" style="stroke:#038048;stroke-width:1.0;"/><text fill="#000000" font-family="sans-serif" font-size="11" lengthAdjust="spacing" textLength="301" x="686.5" y="595.7339">send ответ по достаточности средств на счете()</text><!--MD5=[74dad14b52acea7f03b0d0089fa05dcc]
class СчетСКартой--><rect codeLine="106" fill="#FEFECE" filter="url(#fdaadrtd7a2z5)" height="176.0469" id="СчетСКартой" style="stroke:#A80036;stroke-width:1.5;" width="369" x="423.5" y="670"/><ellipse cx="561.75" cy="686" fill="#ADD1B2" rx="11" ry="11" style="stroke:#A80036;stroke-width:1.0;"/><path d="M564.0938,681.6719 C563.1563,681.2344 562.5625,681.0938 561.6875,681.0938 C559.0625,681.0938 557.0625,683.1719 557.0625,685.8906 L557.0625,687.0156 C557.0625,689.5938 559.1719,691.4844 562.0625,691.4844 C563.2813,691.4844 564.4375,691.1875 565.1875,690.6406 C565.7656,690.2344 566.0938,689.7813 566.0938,689.3906 C566.0938,688.9375 565.7031,688.5469 565.2344,688.5469 C565.0156,688.5469 564.8125,688.625 564.625,688.8125 C564.1719,689.2969 564.1719,689.2969 563.9844,689.3906 C563.5625,689.6563 562.875,689.7813 562.1094,689.7813 C560.0625,689.7813 558.7656,688.6875 558.7656,686.9844 L558.7656,685.8906 C558.7656,684.1094 560.0156,682.7969 561.75,682.7969 C562.3281,682.7969 562.9375,682.9531 563.4063,683.2031 C563.8906,683.4844 564.0625,683.7031 564.1563,684.1094 C564.2188,684.5156 564.25,684.6406 564.3906,684.7656 C564.5313,684.9063 564.7656,685.0156 564.9844,685.0156 C565.25,685.0156 565.5156,684.875 565.6875,684.6563 C565.7969,684.5 565.8281,684.3125 565.8281,683.8906 L565.8281,682.4688 C565.8281,682.0313 565.8125,681.9063 565.7188,681.75 C565.5625,681.4844 565.2813,681.3438 564.9844,681.3438 C564.6875,681.3438 564.4844,681.4375 564.2656,681.75 L564.0938,681.6719 Z " fill="#000000"/><text fill="#000000" font-family="sans-serif" font-size="12" lengthAdjust="spacing" textLength="84" x="582.25" y="690.1543">СчетСКартой</text><line style="stroke:#A80036;stroke-width:1.5;" x1="424.5" x2="791.5" y1="702" y2="702"/><polygon fill="none" points="434.5,709,430.5,715,438.5,715" style="stroke:#1963A0;stroke-width:1.0;"/><text fill="#000000" font-family="sans-serif" font-size="11" lengthAdjust="spacing" textLength="99" x="443.5" y="716.2104">владелец счета</text><ellipse cx="434.5" cy="725.8047" rx="3" ry="3" style="stroke:#038048;stroke-width:1.0;fill:none;"/><text fill="#000000" font-family="sans-serif" font-size="11" lengthAdjust="spacing" textLength="89" x="443.5" y="729.0151">срок действия</text><ellipse cx="434.5" cy="738.6094" rx="3" ry="3" style="stroke:#038048;stroke-width:1.0;fill:none;"/><text fill="#000000" font-family="sans-serif" font-size="11" lengthAdjust="spacing" textLength="84" x="443.5" y="741.8198">валюта счета</text><rect fill="none" height="6" style="stroke:#C82930;stroke-width:1.0;" width="6" x="431.5" y="748.4141"/><text fill="#000000" font-family="sans-serif" font-size="11" lengthAdjust="spacing" textLength="129" x="443.5" y="754.6245">остаток ден.средств</text><rect fill="none" height="6" style="stroke:#C82930;stroke-width:1.0;" width="6" x="431.5" y="761.2188"/><text fill="#000000" font-family="sans-serif" font-size="11" lengthAdjust="spacing" textLength="343" x="443.5" y="767.4292">Данные карты { СVC, PIN, номер карты, срок действия }</text><line style="stroke:#A80036;stroke-width:1.5;" x1="424.5" x2="791.5" y1="774.0234" y2="774.0234"/><polygon fill="#4177AF" points="434.5,781.0234,430.5,787.0234,438.5,787.0234" style="stroke:#1963A0;stroke-width:1.0;"/><text fill="#000000" font-family="sans-serif" font-size="11" lengthAdjust="spacing" textLength="241" x="443.5" y="788.2339">get запрос на проверку данных карты()</text><polygon fill="#4177AF" points="434.5,793.8281,430.5,799.8281,438.5,799.8281" style="stroke:#1963A0;stroke-width:1.0;"/><text fill="#000000" font-family="sans-serif" font-size="11" lengthAdjust="spacing" textLength="262" x="443.5" y="801.0386">get запрос на проверку средств на карте()</text><ellipse cx="434.5" cy="810.6328" fill="#84BE84" rx="3" ry="3" style="stroke:#038048;stroke-width:1.0;"/><text fill="#000000" font-family="sans-serif" font-size="11" lengthAdjust="spacing" textLength="186" x="443.5" y="813.8433">send ответ по данным карты()</text><rect fill="#F24D5C" height="6" style="stroke:#C82930;stroke-width:1.0;" width="6" x="431.5" y="820.4375"/><text fill="#000000" font-family="sans-serif" font-size="11" lengthAdjust="spacing" textLength="207" x="443.5" y="826.6479">check наличие средств на счете()</text><ellipse cx="434.5" cy="836.2422" fill="#84BE84" rx="3" ry="3" style="stroke:#038048;stroke-width:1.0;"/><text fill="#000000" font-family="sans-serif" font-size="11" lengthAdjust="spacing" textLength="301" x="443.5" y="839.4526">send ответ по достаточности средств на счете()</text><path d="M1158,82.5 L1158,107.6328 L1356,107.6328 L1356,92.5 L1346,82.5 L1158,82.5 " fill="#FBFB77" filter="url(#fdaadrtd7a2z5)" style="stroke:#A80036;stroke-width:1.0;"/><path d="M1346,82.5 L1346,92.5 L1356,92.5 L1346,82.5 " fill="#FBFB77" style="stroke:#A80036;stroke-width:1.0;"/><text fill="#000000" font-family="sans-serif" font-size="13" lengthAdjust="spacing" textLength="177" x="1164" y="99.5669">Исполнитель Грамович Ю.</text><!--MD5=[ee4f109c6e0a092f7dc51c392a432865]
reverse link Пользователь to Инкассатор--><path codeLine="31" d="M97,171.409 C97,194.794 97,220.535 97,243.835 " fill="none" id="Пользователь-backto-Инкассатор" style="stroke:#A80036;stroke-width:1.0;"/><polygon fill="none" points="90.0001,171.162,97,151.162,104.0001,171.162,90.0001,171.162" style="stroke:#A80036;stroke-width:1.0;"/><!--MD5=[387cb86ae25bb1be1fa2b388ae5a99c5]
reverse link Пользователь to Клиент--><path codeLine="32" d="M161.426,166.111 C184.168,190.86 209.808,218.761 232.848,243.835 " fill="none" id="Пользователь-backto-Клиент" style="stroke:#A80036;stroke-width:1.0;"/><polygon fill="none" points="156.067,170.625,147.689,151.162,166.376,161.152,156.067,170.625" style="stroke:#A80036;stroke-width:1.0;"/><!--MD5=[63f39eb25d95a403f32f8eb78082b116]
link Клиент to Карта--><path codeLine="45" d="M303.708,394.143 C304.615,418.961 305.621,446.493 306.51,470.833 " fill="none" id="Клиент-Карта" style="stroke:#A80036;stroke-width:1.0;"/><polygon fill="#000000" points="310.8174,427.5697,308.2107,436.7161,314.0847,436.5015,310.8174,427.5697" style="stroke:#000000;stroke-width:1.0;"/><text fill="#000000" font-family="sans-serif" font-size="13" lengthAdjust="spacing" textLength="57" x="320" y="437.0669">владеет</text><!--MD5=[e1f8e711145e0b6f617b93e3181dd9aa]
reverse link Карта to Счет--><path codeLine="55" d="M309.679,614.354 C309.945,643.016 310.244,675.319 310.49,701.928 " fill="none" id="Карта-backto-Счет" style="stroke:#A80036;stroke-width:1.0;stroke-dasharray:7.0,7.0;"/><polygon fill="#A80036" points="309.63,609.047,305.7125,618.0832,309.6757,614.0468,313.7121,618.01,309.63,609.047" style="stroke:#A80036;stroke-width:1.0;"/><!--MD5=[918b4830ac8f7b045ba3b0528f4ede85]
reverse link БанковскийСчет to СчетСКартой--><path codeLine="121" d="M715.043,394.203 C689.523,415.965 665.259,441.861 649,471 C615.149,531.667 605.925,610.402 604.589,669.898 " fill="none" id="БанковскийСчет-backto-СчетСКартой" style="stroke:#A80036;stroke-width:1.0;"/><polygon fill="none" points="710.669,388.738,730.597,381.536,719.51,399.593,710.669,388.738" style="stroke:#A80036;stroke-width:1.0;"/><!--MD5=[3e41af1e3ec616de0c970e8b6fdc545b]
reverse link БанковскийСчет to РасчетныйСчет--><path codeLine="122" d="M830,401.62 C830,426.743 830,453.964 830,477.497 " fill="none" id="БанковскийСчет-backto-РасчетныйСчет" style="stroke:#A80036;stroke-width:1.0;"/><polygon fill="none" points="823,401.587,830,381.587,837,401.586,823,401.587" style="stroke:#A80036;stroke-width:1.0;"/><!--MD5=[dfcbac652ba49e8659c2f845348ff950]
reverse link BankSystem to БанковскийСчет--><path codeLine="124" d="M830.548,196.393 C830.456,216.766 830.362,237.62 830.278,256.176 " fill="none" id="BankSystem-backto-БанковскийСчет" style="stroke:#A80036;stroke-width:1.0;"/><polygon fill="#FFFFFF" points="830.608,183.103,826.5804,189.0845,830.5526,195.1029,834.5803,189.1214,830.608,183.103" style="stroke:#A80036;stroke-width:1.0;"/><!--MD5=[2fac253aaf1bcef71040750ca040407c]
link Счет to СчетСКартой--><path codeLine="126" d="M388.73,758 C400.294,758 411.857,758 423.42,758 " fill="none" id="Счет-СчетСКартой" style="stroke:#A80036;stroke-width:1.0;"/><!--MD5=[e67ff928bb71e9835ac037306f93910e]
link Пользователь to АТМ--><path codeLine="127" d="M171.578,95 C183.161,95 194.745,95 206.328,95 " fill="none" id="Пользователь-АТМ" style="stroke:#A80036;stroke-width:1.0;"/><!--MD5=[98f63c7a158acade005539abed574ea1]
link АТМ to BankSystem--><path codeLine="128" d="M503.75,95 C515.468,95 527.186,95 538.904,95 " fill="none" id="АТМ-BankSystem" style="stroke:#A80036;stroke-width:1.0;"/><!--MD5=[3a7b6b47654fbc48181905506dc81677]
@startuml
class Пользователь {
+ ФИО
+ телефон
+ адрес
#id в банковском ПО
- паспортные данные
}

class Инкассатор{
+ ФИО
+ телефон
+ адрес
#id в банковском ПО
- паспортные данные
-логин
-пароль
~получить доступ к АТМ()
}

class Клиент{
+ ФИО
+ телефон
+ адрес
#id в банковском ПО
- паспортные данные
+set операция()
+set сумма операции()
+set валюта операции()
}

Пользователь <|- - Инкассатор
Пользователь <|- - Клиент


class Карта {
-CVC код
#PIN код
+ номер карты
+ срок действия

~сверить PIN()
+get Номер карты()
+get Срок действия()
}
Клиент - - Карта: < владеет

class Счет {
~ владелец счета
+ срок действия
+ валюта счета
+ остаток ден.средств

+get остаток()
}
Карта <.down. Счет 


class АТМ {
~ владелец ATM
~ владелец счета
+get PIN()
+get операция()
+get сумма операции()
+get валюта операции()
~check наличие средств в Банкомате()
~send запрос на проверку данных карты()
~send запрос на проверку средств на карте()
}


class BankSystem {
+ Название
+ Лицензии
+ УНП
- Данные о клиентах { ФИО / УНП, телефон, адрес, дата рождения/дата регистрации}
- Данные о счетах клиентов { владелец, срок действия, вид счета, валюта счета, остаток}

~ get запрос на проверку данных карты()
~ get запрос на проверку средств на карте()
+ send ответ по данным карты()
- check наличие средств на счете()
+ send ответ по достаточности средств на счете()

}


class БанковскийСчет {
~ владелец счета
+ срок действия
+ валюта счета
- остаток ден.средств

- check наличие средств на счете()
+ send ответ по достаточности средств на счете()
}

class РасчетныйСчет {
~ владелец счета
+ срок действия
+ валюта счета
- остаток ден.средств
- check наличие средств на счете()
+ send ответ по достаточности средств на счете()

}
class СчетСКартой {
~ владелец счета
+ срок действия
+ валюта счета
- остаток ден.средств
- Данные карты { СVC, PIN, номер карты, срок действия }

~ get запрос на проверку данных карты()
~ get запрос на проверку средств на карте()
+ send ответ по данным карты()
- check наличие средств на счете()
+ send ответ по достаточности средств на счете()

}

БанковскийСчет <|- - СчетСКартой 
БанковскийСчет <|- - РасчетныйСчет 

BankSystem o- - БанковскийСчет 

Счет -right- СчетСКартой
Пользователь -right- АТМ
АТМ-right- BankSystem

note "Исполнитель Грамович Ю." as N1
@enduml

PlantUML version 1.2021.17beta4(Unknown compile time)
(GPL source distribution)
Java Runtime: Java(TM) SE Runtime Environment
JVM: Java HotSpot(TM) 64-Bit Server VM
Default Encoding: UTF-8
Language: en
Country: US
--></g></svg>